<svg xmlns="http://www.w3.org/2000/svg" xmlns:xlink="http://www.w3.org/1999/xlink" width="1920" zoomAndPan="magnify" viewBox="0 0 1440 809.999993" height="1080" preserveAspectRatio="xMidYMid meet" version="1.0"><defs><filter x="0%" y="0%" width="100%" height="100%" id="id1"><feColorMatrix values="0 0 0 0 1 0 0 0 0 1 0 0 0 0 1 0 0 0 1 0" color-interpolation-filters="sRGB"/></filter><mask id="id2"><g filter="url(#id1)"><rect x="-144" width="1728" fill="rgb(0%, 0%, 0%)" y="-80.999999" height="971.999992" fill-opacity="0.6471"/></g></mask><clipPath id="id3"><path d="M 0 0.519531 L 404 0.519531 L 404 68 L 0 68 Z M 0 0.519531 " clip-rule="nonzero"/></clipPath><clipPath id="id4"><rect x="0" width="405" y="0" height="69"/></clipPath><mask id="id5"><g filter="url(#id1)"><rect x="-144" width="1728" fill="rgb(0%, 0%, 0%)" y="-80.999999" height="971.999992" fill-opacity="0.5176"/></g></mask><clipPath id="id6"><path d="M 0.398438 0.800781 L 192.878906 0.800781 L 192.878906 54.800781 L 0.398438 54.800781 Z M 0.398438 0.800781 " clip-rule="nonzero"/></clipPath><clipPath id="id7"><rect x="0" width="193" y="0" height="55"/></clipPath><mask id="id8"><g filter="url(#id1)"><rect x="-144" width="1728" fill="rgb(0%, 0%, 0%)" y="-80.999999" height="971.999992" fill-opacity="0.6471"/></g></mask><clipPath id="id9"><path d="M 1 0.640625 L 193 0.640625 L 193 48 L 1 48 Z M 1 0.640625 " clip-rule="nonzero"/></clipPath><clipPath id="id10"><rect x="0" width="194" y="0" height="49"/></clipPath><mask id="id11"><g filter="url(#id1)"><rect x="-144" width="1728" fill="rgb(0%, 0%, 0%)" y="-80.999999" height="971.999992" fill-opacity="0.5176"/></g></mask><clipPath id="id12"><path d="M 0.640625 0.761719 L 418 0.761719 L 418 67 L 0.640625 67 Z M 0.640625 0.761719 " clip-rule="nonzero"/></clipPath><clipPath id="id13"><rect x="0" width="418" y="0" height="67"/></clipPath><mask id="id14"><g filter="url(#id1)"><rect x="-144" width="1728" fill="rgb(0%, 0%, 0%)" y="-80.999999" height="971.999992" fill-opacity="0.6471"/></g></mask><clipPath id="id15"><path d="M 1 0.800781 L 23.761719 0.800781 L 23.761719 23.359375 L 1 23.359375 Z M 1 0.800781 " clip-rule="nonzero"/></clipPath><clipPath id="id16"><rect x="0" width="24" y="0" height="24"/></clipPath><mask id="id17"><g filter="url(#id1)"><rect x="-144" width="1728" fill="rgb(0%, 0%, 0%)" y="-80.999999" height="971.999992" fill-opacity="0.898"/></g></mask><clipPath id="id18"><path d="M 0.441406 0.441406 L 47.960938 0.441406 L 47.960938 47.71875 L 0.441406 47.71875 Z M 0.441406 0.441406 " clip-rule="nonzero"/></clipPath><clipPath id="id19"><rect x="0" width="48" y="0" height="48"/></clipPath></defs><path fill="rgb(5.099487%, 16.079712%, 27.059937%)" d="M -61.28125 119.300781 L 1437.179688 2.566406 L 1491.003906 693.46875 L -7.457031 810.207031 L -61.28125 119.300781 " fill-opacity="1" fill-rule="nonzero"/><g mask="url(#id2)"><g transform="matrix(1, 0, 0, 1, 0, 47)"><g clip-path="url(#id4)"><g clip-path="url(#id3)"><path fill="rgb(54.899597%, 32.159424%, 100%)" d="M -2.777344 32.070312 L 401 0.613281 L 403.796875 36.503906 L 0.0195312 67.960938 L -2.777344 32.070312 " fill-opacity="1" fill-rule="nonzero"/></g></g></g></g><g mask="url(#id5)"><g transform="matrix(1, 0, 0, 1, 176, 28)"><g clip-path="url(#id7)"><g clip-path="url(#id6)"><path fill="rgb(12.548828%, 78.039551%, 94.119263%)" d="M 0.460938 15.65625 L 189.601562 0.917969 L 192.628906 39.800781 L 3.492188 54.535156 L 0.460938 15.65625 " fill-opacity="1" fill-rule="nonzero"/></g></g></g></g><g mask="url(#id8)"><g transform="matrix(1, 0, 0, 1, 1070, 728)"><g clip-path="url(#id10)"><g clip-path="url(#id9)"><path fill="rgb(54.899597%, 32.159424%, 100%)" d="M 1.109375 15.566406 L 190.242188 0.832031 L 192.746094 32.984375 L 3.613281 47.71875 L 1.109375 15.566406 " fill-opacity="1" fill-rule="nonzero"/></g></g></g></g><g mask="url(#id11)"><g transform="matrix(1, 0, 0, 1, 1022, 695)"><g clip-path="url(#id13)"><g clip-path="url(#id12)"><path fill="rgb(12.548828%, 78.039551%, 94.119263%)" d="M 0.691406 34.390625 L 431.265625 0.847656 L 433.773438 33 L 3.195312 66.542969 L 0.691406 34.390625 " fill-opacity="1" fill-rule="nonzero"/></g></g></g></g><g mask="url(#id14)"><g transform="matrix(1, 0, 0, 1, 108, 46)"><g clip-path="url(#id16)"><g clip-path="url(#id15)"><path fill="rgb(12.548828%, 78.039551%, 94.119263%)" d="M 12.363281 0.859375 C 6.148438 0.859375 1.113281 5.894531 1.113281 12.109375 C 1.113281 18.320312 6.148438 23.359375 12.363281 23.359375 C 18.578125 23.359375 23.613281 18.320312 23.613281 12.109375 C 23.613281 5.894531 18.578125 0.859375 12.363281 0.859375 " fill-opacity="1" fill-rule="nonzero"/></g></g></g></g><g mask="url(#id17)"><g transform="matrix(1, 0, 0, 1, 127, 19)"><g clip-path="url(#id19)"><g clip-path="url(#id18)"><path fill="rgb(98.81897%, 84.309387%, 41.178894%)" d="M 24.191406 0.453125 C 11.144531 0.453125 0.566406 11.03125 0.566406 24.078125 C 0.566406 37.125 11.144531 47.703125 24.191406 47.703125 C 37.238281 47.703125 47.816406 37.125 47.816406 24.078125 C 47.816406 11.03125 37.238281 0.453125 24.191406 0.453125 " fill-opacity="1" fill-rule="nonzero"/></g></g></g></g></svg>