<svg xmlns="http://www.w3.org/2000/svg" xmlns:xlink="http://www.w3.org/1999/xlink" width="1920" zoomAndPan="magnify" viewBox="0 0 1440 809.999993" height="1080" preserveAspectRatio="xMidYMid meet" version="1.0"><defs><clipPath id="id1"><path d="M 619.09375 0 L 1277.59375 0 L 1277.59375 658.5 L 619.09375 658.5 Z M 619.09375 0 " clip-rule="nonzero"/></clipPath><clipPath id="id2"><path d="M 895.238281 382.355469 L 661.574219 382.355469 L 661.574219 403.597656 L 895.238281 403.597656 Z M 704.058594 361.113281 L 895.238281 361.113281 L 895.238281 339.871094 L 704.058594 339.871094 Z M 682.816406 339.871094 L 661.574219 339.871094 L 661.574219 361.113281 L 682.816406 361.113281 Z M 682.816406 286.765625 C 682.816406 292.617188 687.589844 297.386719 693.4375 297.386719 L 863.375 297.386719 C 869.222656 297.386719 873.996094 292.617188 873.996094 286.765625 L 873.996094 159.316406 C 873.996094 153.464844 869.222656 148.695312 863.375 148.695312 L 693.4375 148.695312 C 687.589844 148.695312 682.816406 153.464844 682.816406 159.316406 Z M 661.574219 286.765625 L 661.574219 159.316406 C 661.574219 141.722656 675.847656 127.453125 693.4375 127.453125 L 863.375 127.453125 C 880.964844 127.453125 895.238281 141.722656 895.238281 159.316406 L 895.238281 286.765625 C 895.238281 304.355469 880.964844 318.628906 863.375 318.628906 L 693.4375 318.628906 C 675.847656 318.628906 661.574219 304.355469 661.574219 286.765625 Z M 746.542969 248.347656 C 746.542969 252.953125 751.894531 256.273438 756.042969 254.199219 L 806.617188 228.890625 C 808.859375 227.8125 810.269531 225.53125 810.269531 223.039062 C 810.269531 220.550781 808.859375 218.269531 806.660156 217.191406 L 756.042969 191.882812 C 755.132812 191.425781 754.136719 191.175781 753.097656 191.175781 C 749.488281 191.175781 746.542969 194.125 746.542969 197.734375 Z M 725.300781 248.347656 L 725.300781 197.734375 C 725.300781 182.421875 737.789062 169.933594 753.097656 169.933594 C 757.414062 169.933594 761.6875 170.929688 765.546875 172.882812 L 816.121094 198.148438 C 825.621094 202.917969 831.511719 212.417969 831.511719 223.039062 C 831.511719 233.660156 825.621094 243.160156 816.121094 247.933594 L 765.546875 273.199219 C 761.6875 275.148438 757.414062 276.144531 753.097656 276.144531 C 737.789062 276.144531 725.300781 263.65625 725.300781 248.347656 Z M 1256.351562 477.945312 L 1256.351562 446.082031 L 640.335938 446.082031 L 640.335938 477.945312 C 640.335938 495.535156 654.605469 509.804688 672.195312 509.804688 L 1224.488281 509.804688 C 1242.078125 509.804688 1256.351562 495.535156 1256.351562 477.945312 Z M 1012.484375 531.046875 L 884.203125 531.046875 C 883 546.605469 877.480469 561.25 868.351562 573.53125 L 1028.332031 573.53125 C 1019.203125 561.25 1013.6875 546.605469 1012.484375 531.046875 Z M 1107.65625 594.773438 L 789.027344 594.773438 C 783.179688 594.773438 778.40625 599.546875 778.40625 605.394531 L 778.40625 626.636719 C 778.40625 632.488281 783.179688 637.257812 789.027344 637.257812 L 1107.65625 637.257812 C 1113.507812 637.257812 1118.277344 632.488281 1118.277344 626.636719 L 1118.277344 605.394531 C 1118.277344 599.546875 1113.507812 594.773438 1107.65625 594.773438 Z M 640.335938 138.074219 L 640.335938 424.839844 L 937.722656 424.839844 L 937.722656 293.113281 C 937.722656 265.484375 953.070312 240.671875 977.757812 228.308594 C 984.230469 225.113281 991.117188 222.832031 998.253906 221.671875 L 1043.929688 214.039062 L 1043.929688 195.988281 C 1033.476562 186.570312 1026.132812 173.792969 1023.644531 159.316406 L 1012.066406 159.316406 C 994.476562 159.316406 980.203125 145.042969 980.203125 127.453125 C 980.203125 119.859375 982.984375 113.015625 987.425781 107.496094 C 987.214844 107.082031 986.925781 106.667969 986.71875 106.210938 L 672.195312 106.210938 C 654.605469 106.210938 640.335938 120.480469 640.335938 138.074219 Z M 1022.6875 138.074219 L 1022.6875 116.832031 L 1012.066406 116.832031 C 1006.21875 116.832031 1001.445312 121.601562 1001.445312 127.453125 C 1001.445312 133.300781 1006.21875 138.074219 1012.066406 138.074219 Z M 1001.445312 76.792969 C 1001.445312 83.558594 1002.898438 90.152344 1005.597656 96.253906 C 1007.710938 95.835938 1009.828125 95.589844 1012.066406 95.589844 L 1022.6875 95.589844 L 1022.6875 95.503906 L 1035.136719 95.503906 C 1051.648438 95.503906 1067.207031 89.074219 1078.90625 77.375 L 1086.414062 69.867188 L 1093.925781 77.375 C 1105.625 89.074219 1121.183594 95.503906 1137.695312 95.503906 L 1150.140625 95.503906 L 1150.140625 95.589844 L 1160.761719 95.589844 C 1163 95.589844 1165.117188 95.835938 1167.234375 96.253906 C 1169.929688 90.152344 1171.382812 83.558594 1171.382812 76.792969 L 1171.382812 74.347656 C 1171.382812 62.648438 1161.839844 53.105469 1150.140625 53.105469 L 1145.742188 53.105469 L 1142.632812 49.992188 C 1123.960938 31.324219 1099.609375 21.242188 1073.71875 21.242188 C 1056.167969 21.242188 1038.910156 26.011719 1023.851562 35.058594 C 1010.035156 43.355469 1001.445312 58.5 1001.445312 74.636719 Z M 1150.140625 138.074219 L 1160.761719 138.074219 C 1166.613281 138.074219 1171.382812 133.300781 1171.382812 127.453125 C 1171.382812 121.601562 1166.613281 116.832031 1160.761719 116.832031 L 1150.140625 116.832031 Z M 1001.738281 242.621094 C 996.675781 243.453125 991.820312 245.027344 987.257812 247.3125 C 969.792969 256.066406 958.964844 273.613281 958.964844 293.113281 L 958.964844 424.839844 L 1213.867188 424.839844 L 1213.867188 293.113281 C 1213.867188 273.613281 1203.039062 256.066406 1185.570312 247.3125 C 1181.007812 245.027344 1176.152344 243.453125 1171.09375 242.621094 L 1148.273438 238.804688 L 1136.738281 330.867188 L 1086.414062 280.542969 L 1036.089844 330.867188 L 1024.554688 238.804688 Z M 1045.550781 235.320312 L 1051.773438 285.148438 L 1072.390625 264.527344 L 1049.945312 234.574219 Z M 1065.171875 208.644531 L 1065.171875 219.515625 L 1086.414062 247.808594 L 1107.65625 219.515625 L 1107.65625 208.644531 C 1101.019531 210.96875 1093.882812 212.335938 1086.414062 212.335938 C 1078.945312 212.335938 1071.8125 210.96875 1065.171875 208.644531 Z M 1128.898438 148.609375 L 1128.898438 116.292969 C 1113.339844 114.671875 1098.695312 108.742188 1086.414062 99.074219 C 1074.132812 108.742188 1059.488281 114.671875 1043.929688 116.292969 L 1043.929688 148.609375 C 1043.929688 172.050781 1062.972656 191.09375 1086.414062 191.09375 C 1109.855469 191.09375 1128.898438 172.050781 1128.898438 148.609375 Z M 1100.4375 264.527344 L 1121.058594 285.148438 L 1127.28125 235.320312 L 1122.882812 234.574219 Z M 1186.109375 106.210938 C 1185.902344 106.667969 1185.65625 107.082031 1185.40625 107.496094 C 1189.84375 113.015625 1192.625 119.859375 1192.625 127.453125 C 1192.625 145.042969 1178.351562 159.316406 1160.761719 159.316406 L 1149.1875 159.316406 C 1146.695312 173.792969 1139.355469 186.570312 1128.898438 195.988281 L 1128.898438 214.039062 L 1174.578125 221.671875 C 1181.714844 222.832031 1188.601562 225.113281 1195.070312 228.308594 C 1219.757812 240.671875 1235.109375 265.484375 1235.109375 293.113281 L 1235.109375 424.839844 L 1256.351562 424.839844 L 1256.351562 138.074219 C 1256.351562 120.480469 1242.078125 106.210938 1224.488281 106.210938 Z M 1277.59375 138.074219 L 1277.59375 477.945312 C 1277.59375 507.234375 1253.777344 531.046875 1224.488281 531.046875 L 1033.726562 531.046875 C 1035.507812 547.976562 1044.304688 563.324219 1058.078125 573.53125 L 1107.65625 573.53125 C 1125.246094 573.53125 1139.519531 587.804688 1139.519531 605.394531 L 1139.519531 626.636719 C 1139.519531 644.226562 1125.246094 658.5 1107.65625 658.5 L 789.027344 658.5 C 771.4375 658.5 757.164062 644.226562 757.164062 626.636719 L 757.164062 605.394531 C 757.164062 587.804688 771.4375 573.53125 789.027344 573.53125 L 838.605469 573.53125 C 852.378906 563.324219 861.175781 547.976562 862.960938 531.046875 L 672.195312 531.046875 C 642.90625 531.046875 619.09375 507.234375 619.09375 477.945312 L 619.09375 138.074219 C 619.09375 108.78125 642.90625 84.96875 672.195312 84.96875 L 980.785156 84.96875 C 980.496094 82.269531 980.203125 79.53125 980.203125 76.792969 L 980.203125 74.636719 C 980.203125 51.070312 992.734375 28.957031 1012.9375 16.84375 C 1031.277344 5.808594 1052.3125 0 1073.71875 0 C 1104.089844 0 1132.714844 11.367188 1154.703125 32.113281 C 1175.988281 34.394531 1192.625 52.484375 1192.625 74.347656 L 1192.625 76.792969 C 1192.625 79.53125 1192.335938 82.269531 1192.042969 84.96875 L 1224.488281 84.96875 C 1253.777344 84.96875 1277.59375 108.78125 1277.59375 138.074219 Z M 767.785156 488.566406 L 789.027344 488.566406 L 789.027344 467.324219 L 767.785156 467.324219 Z M 682.816406 488.566406 L 704.058594 488.566406 L 704.058594 467.324219 L 682.816406 467.324219 Z M 725.300781 467.324219 L 746.542969 467.324219 L 746.542969 488.566406 L 725.300781 488.566406 Z M 725.300781 467.324219 " clip-rule="nonzero"/></clipPath><clipPath id="id3"><path d="M 895.238281 382.355469 L 661.574219 382.355469 L 661.574219 403.597656 L 895.238281 403.597656 Z M 704.058594 361.113281 L 895.238281 361.113281 L 895.238281 339.871094 L 704.058594 339.871094 Z M 682.816406 339.871094 L 661.574219 339.871094 L 661.574219 361.113281 L 682.816406 361.113281 Z M 682.816406 286.765625 C 682.816406 292.617188 687.589844 297.386719 693.4375 297.386719 L 863.375 297.386719 C 869.222656 297.386719 873.996094 292.617188 873.996094 286.765625 L 873.996094 159.316406 C 873.996094 153.464844 869.222656 148.695312 863.375 148.695312 L 693.4375 148.695312 C 687.589844 148.695312 682.816406 153.464844 682.816406 159.316406 Z M 661.574219 286.765625 L 661.574219 159.316406 C 661.574219 141.722656 675.847656 127.453125 693.4375 127.453125 L 863.375 127.453125 C 880.964844 127.453125 895.238281 141.722656 895.238281 159.316406 L 895.238281 286.765625 C 895.238281 304.355469 880.964844 318.628906 863.375 318.628906 L 693.4375 318.628906 C 675.847656 318.628906 661.574219 304.355469 661.574219 286.765625 Z M 746.542969 248.347656 C 746.542969 252.953125 751.894531 256.273438 756.042969 254.199219 L 806.617188 228.890625 C 808.859375 227.8125 810.269531 225.53125 810.269531 223.039062 C 810.269531 220.550781 808.859375 218.269531 806.660156 217.191406 L 756.042969 191.882812 C 755.132812 191.425781 754.136719 191.175781 753.097656 191.175781 C 749.488281 191.175781 746.542969 194.125 746.542969 197.734375 Z M 725.300781 248.347656 L 725.300781 197.734375 C 725.300781 182.421875 737.789062 169.933594 753.097656 169.933594 C 757.414062 169.933594 761.6875 170.929688 765.546875 172.882812 L 816.121094 198.148438 C 825.621094 202.917969 831.511719 212.417969 831.511719 223.039062 C 831.511719 233.660156 825.621094 243.160156 816.121094 247.933594 L 765.546875 273.199219 C 761.6875 275.148438 757.414062 276.144531 753.097656 276.144531 C 737.789062 276.144531 725.300781 263.65625 725.300781 248.347656 Z M 1256.351562 477.945312 L 1256.351562 446.082031 L 640.335938 446.082031 L 640.335938 477.945312 C 640.335938 495.535156 654.605469 509.804688 672.195312 509.804688 L 1224.488281 509.804688 C 1242.078125 509.804688 1256.351562 495.535156 1256.351562 477.945312 Z M 1012.484375 531.046875 L 884.203125 531.046875 C 883 546.605469 877.480469 561.25 868.351562 573.53125 L 1028.332031 573.53125 C 1019.203125 561.25 1013.6875 546.605469 1012.484375 531.046875 Z M 1107.65625 594.773438 L 789.027344 594.773438 C 783.179688 594.773438 778.40625 599.546875 778.40625 605.394531 L 778.40625 626.636719 C 778.40625 632.488281 783.179688 637.257812 789.027344 637.257812 L 1107.65625 637.257812 C 1113.507812 637.257812 1118.277344 632.488281 1118.277344 626.636719 L 1118.277344 605.394531 C 1118.277344 599.546875 1113.507812 594.773438 1107.65625 594.773438 Z M 640.335938 138.074219 L 640.335938 424.839844 L 937.722656 424.839844 L 937.722656 293.113281 C 937.722656 265.484375 953.070312 240.671875 977.757812 228.308594 C 984.230469 225.113281 991.117188 222.832031 998.253906 221.671875 L 1043.929688 214.039062 L 1043.929688 195.988281 C 1033.476562 186.570312 1026.132812 173.792969 1023.644531 159.316406 L 1012.066406 159.316406 C 994.476562 159.316406 980.203125 145.042969 980.203125 127.453125 C 980.203125 119.859375 982.984375 113.015625 987.425781 107.496094 C 987.214844 107.082031 986.925781 106.667969 986.71875 106.210938 L 672.195312 106.210938 C 654.605469 106.210938 640.335938 120.480469 640.335938 138.074219 Z M 1022.6875 138.074219 L 1022.6875 116.832031 L 1012.066406 116.832031 C 1006.21875 116.832031 1001.445312 121.601562 1001.445312 127.453125 C 1001.445312 133.300781 1006.21875 138.074219 1012.066406 138.074219 Z M 1001.445312 76.792969 C 1001.445312 83.558594 1002.898438 90.152344 1005.597656 96.253906 C 1007.710938 95.835938 1009.828125 95.589844 1012.066406 95.589844 L 1022.6875 95.589844 L 1022.6875 95.503906 L 1035.136719 95.503906 C 1051.648438 95.503906 1067.207031 89.074219 1078.90625 77.375 L 1086.414062 69.867188 L 1093.925781 77.375 C 1105.625 89.074219 1121.183594 95.503906 1137.695312 95.503906 L 1150.140625 95.503906 L 1150.140625 95.589844 L 1160.761719 95.589844 C 1163 95.589844 1165.117188 95.835938 1167.234375 96.253906 C 1169.929688 90.152344 1171.382812 83.558594 1171.382812 76.792969 L 1171.382812 74.347656 C 1171.382812 62.648438 1161.839844 53.105469 1150.140625 53.105469 L 1145.742188 53.105469 L 1142.632812 49.992188 C 1123.960938 31.324219 1099.609375 21.242188 1073.71875 21.242188 C 1056.167969 21.242188 1038.910156 26.011719 1023.851562 35.058594 C 1010.035156 43.355469 1001.445312 58.5 1001.445312 74.636719 Z M 1150.140625 138.074219 L 1160.761719 138.074219 C 1166.613281 138.074219 1171.382812 133.300781 1171.382812 127.453125 C 1171.382812 121.601562 1166.613281 116.832031 1160.761719 116.832031 L 1150.140625 116.832031 Z M 1001.738281 242.621094 C 996.675781 243.453125 991.820312 245.027344 987.257812 247.3125 C 969.792969 256.066406 958.964844 273.613281 958.964844 293.113281 L 958.964844 424.839844 L 1213.867188 424.839844 L 1213.867188 293.113281 C 1213.867188 273.613281 1203.039062 256.066406 1185.570312 247.3125 C 1181.007812 245.027344 1176.152344 243.453125 1171.09375 242.621094 L 1148.273438 238.804688 L 1136.738281 330.867188 L 1086.414062 280.542969 L 1036.089844 330.867188 L 1024.554688 238.804688 Z M 1045.550781 235.320312 L 1051.773438 285.148438 L 1072.390625 264.527344 L 1049.945312 234.574219 Z M 1065.171875 208.644531 L 1065.171875 219.515625 L 1086.414062 247.808594 L 1107.65625 219.515625 L 1107.65625 208.644531 C 1101.019531 210.96875 1093.882812 212.335938 1086.414062 212.335938 C 1078.945312 212.335938 1071.8125 210.96875 1065.171875 208.644531 Z M 1128.898438 148.609375 L 1128.898438 116.292969 C 1113.339844 114.671875 1098.695312 108.742188 1086.414062 99.074219 C 1074.132812 108.742188 1059.488281 114.671875 1043.929688 116.292969 L 1043.929688 148.609375 C 1043.929688 172.050781 1062.972656 191.09375 1086.414062 191.09375 C 1109.855469 191.09375 1128.898438 172.050781 1128.898438 148.609375 Z M 1100.4375 264.527344 L 1121.058594 285.148438 L 1127.28125 235.320312 L 1122.882812 234.574219 Z M 1186.109375 106.210938 C 1185.902344 106.667969 1185.65625 107.082031 1185.40625 107.496094 C 1189.84375 113.015625 1192.625 119.859375 1192.625 127.453125 C 1192.625 145.042969 1178.351562 159.316406 1160.761719 159.316406 L 1149.1875 159.316406 C 1146.695312 173.792969 1139.355469 186.570312 1128.898438 195.988281 L 1128.898438 214.039062 L 1174.578125 221.671875 C 1181.714844 222.832031 1188.601562 225.113281 1195.070312 228.308594 C 1219.757812 240.671875 1235.109375 265.484375 1235.109375 293.113281 L 1235.109375 424.839844 L 1256.351562 424.839844 L 1256.351562 138.074219 C 1256.351562 120.480469 1242.078125 106.210938 1224.488281 106.210938 Z M 1277.59375 138.074219 L 1277.59375 477.945312 C 1277.59375 507.234375 1253.777344 531.046875 1224.488281 531.046875 L 1033.726562 531.046875 C 1035.507812 547.976562 1044.304688 563.324219 1058.078125 573.53125 L 1107.65625 573.53125 C 1125.246094 573.53125 1139.519531 587.804688 1139.519531 605.394531 L 1139.519531 626.636719 C 1139.519531 644.226562 1125.246094 658.5 1107.65625 658.5 L 789.027344 658.5 C 771.4375 658.5 757.164062 644.226562 757.164062 626.636719 L 757.164062 605.394531 C 757.164062 587.804688 771.4375 573.53125 789.027344 573.53125 L 838.605469 573.53125 C 852.378906 563.324219 861.175781 547.976562 862.960938 531.046875 L 672.195312 531.046875 C 642.90625 531.046875 619.09375 507.234375 619.09375 477.945312 L 619.09375 138.074219 C 619.09375 108.78125 642.90625 84.96875 672.195312 84.96875 L 980.785156 84.96875 C 980.496094 82.269531 980.203125 79.53125 980.203125 76.792969 L 980.203125 74.636719 C 980.203125 51.070312 992.734375 28.957031 1012.9375 16.84375 C 1031.277344 5.808594 1052.3125 0 1073.71875 0 C 1104.089844 0 1132.714844 11.367188 1154.703125 32.113281 C 1175.988281 34.394531 1192.625 52.484375 1192.625 74.347656 L 1192.625 76.792969 C 1192.625 79.53125 1192.335938 82.269531 1192.042969 84.96875 L 1224.488281 84.96875 C 1253.777344 84.96875 1277.59375 108.78125 1277.59375 138.074219 Z M 767.785156 488.566406 L 789.027344 488.566406 L 789.027344 467.324219 L 767.785156 467.324219 Z M 682.816406 488.566406 L 704.058594 488.566406 L 704.058594 467.324219 L 682.816406 467.324219 Z M 725.300781 467.324219 L 746.542969 467.324219 L 746.542969 488.566406 L 725.300781 488.566406 L 725.300781 467.324219 " clip-rule="nonzero"/></clipPath><linearGradient x1="0.0000000429423" gradientTransform="matrix(0, -658.499994, 658.499994, 0, 948.342158, 658.500011)" y1="0" x2="1" gradientUnits="userSpaceOnUse" y2="0" id="id4"><stop stop-opacity="1" stop-color="rgb(62.399292%, 18.399048%, 100%)" offset="0"/><stop stop-opacity="1" stop-color="rgb(62.199402%, 18.598938%, 100%)" offset="0.00390625"/><stop stop-opacity="1" stop-color="rgb(61.999512%, 18.798828%, 100%)" offset="0.0078125"/><stop stop-opacity="1" stop-color="rgb(61.799622%, 18.998718%, 99.798584%)" offset="0.0117188"/><stop stop-opacity="1" stop-color="rgb(61.599731%, 19.198608%, 99.598694%)" offset="0.015625"/><stop stop-opacity="1" stop-color="rgb(61.376953%, 19.419861%, 99.598694%)" offset="0.0195313"/><stop stop-opacity="1" stop-color="rgb(61.155701%, 19.642639%, 99.598694%)" offset="0.0234375"/><stop stop-opacity="1" stop-color="rgb(60.777283%, 19.833374%, 99.586487%)" offset="0.0273438"/><stop stop-opacity="1" stop-color="rgb(60.398865%, 20.024109%, 99.57428%)" offset="0.03125"/><stop stop-opacity="1" stop-color="rgb(60.198975%, 20.214844%, 99.386597%)" offset="0.0351563"/><stop stop-opacity="1" stop-color="rgb(59.999084%, 20.405579%, 99.198914%)" offset="0.0390625"/><stop stop-opacity="1" stop-color="rgb(59.805298%, 20.602417%, 99.198914%)" offset="0.0429688"/><stop stop-opacity="1" stop-color="rgb(59.611511%, 20.799255%, 99.198914%)" offset="0.046875"/><stop stop-opacity="1" stop-color="rgb(59.405518%, 20.999146%, 99.198914%)" offset="0.0507813"/><stop stop-opacity="1" stop-color="rgb(59.199524%, 21.199036%, 99.198914%)" offset="0.0546875"/><stop stop-opacity="1" stop-color="rgb(58.999634%, 21.398926%, 98.999023%)" offset="0.0585938"/><stop stop-opacity="1" stop-color="rgb(58.799744%, 21.598816%, 98.799133%)" offset="0.0625"/><stop stop-opacity="1" stop-color="rgb(58.583069%, 21.813965%, 98.799133%)" offset="0.0664063"/><stop stop-opacity="1" stop-color="rgb(58.36792%, 22.03064%, 98.799133%)" offset="0.0703125"/><stop stop-opacity="1" stop-color="rgb(57.983398%, 22.219849%, 98.79303%)" offset="0.0742188"/><stop stop-opacity="1" stop-color="rgb(57.598877%, 22.409058%, 98.786926%)" offset="0.078125"/><stop stop-opacity="1" stop-color="rgb(57.450867%, 22.554016%, 98.59314%)" offset="0.0859375"/><stop stop-opacity="1" stop-color="rgb(57.113647%, 22.898865%, 98.399353%)" offset="0.0898438"/><stop stop-opacity="1" stop-color="rgb(56.924438%, 23.098755%, 98.399353%)" offset="0.09375"/><stop stop-opacity="1" stop-color="rgb(56.733704%, 23.298645%, 98.399353%)" offset="0.0976563"/><stop stop-opacity="1" stop-color="rgb(56.542969%, 23.498535%, 98.399353%)" offset="0.101563"/><stop stop-opacity="1" stop-color="rgb(56.30188%, 23.716736%, 98.199463%)" offset="0.105469"/><stop stop-opacity="1" stop-color="rgb(56.062317%, 23.936462%, 97.999573%)" offset="0.109375"/><stop stop-opacity="1" stop-color="rgb(55.871582%, 24.127197%, 97.999573%)" offset="0.117188"/><stop stop-opacity="1" stop-color="rgb(55.290222%, 24.508667%, 97.799683%)" offset="0.121094"/><stop stop-opacity="1" stop-color="rgb(54.899597%, 24.699402%, 97.599792%)" offset="0.125"/><stop stop-opacity="1" stop-color="rgb(54.708862%, 24.899292%, 97.599792%)" offset="0.128906"/><stop stop-opacity="1" stop-color="rgb(54.518127%, 25.099182%, 97.599792%)" offset="0.132813"/><stop stop-opacity="1" stop-color="rgb(54.327393%, 25.299072%, 97.599792%)" offset="0.136719"/><stop stop-opacity="1" stop-color="rgb(54.136658%, 25.498962%, 97.599792%)" offset="0.140625"/><stop stop-opacity="1" stop-color="rgb(53.895569%, 25.720215%, 97.44873%)" offset="0.144531"/><stop stop-opacity="1" stop-color="rgb(53.656006%, 25.942993%, 97.299194%)" offset="0.148438"/><stop stop-opacity="1" stop-color="rgb(53.465271%, 26.133728%, 97.299194%)" offset="0.15625"/><stop stop-opacity="1" stop-color="rgb(53.083801%, 26.515198%, 97.299194%)" offset="0.164063"/><stop stop-opacity="1" stop-color="rgb(52.696228%, 26.902771%, 97.105408%)" offset="0.167969"/><stop stop-opacity="1" stop-color="rgb(52.49939%, 27.099609%, 96.911621%)" offset="0.171875"/><stop stop-opacity="1" stop-color="rgb(52.165222%, 27.2995%, 96.905518%)" offset="0.175781"/><stop stop-opacity="1" stop-color="rgb(51.831055%, 27.49939%, 96.899414%)" offset="0.179688"/><stop stop-opacity="1" stop-color="rgb(51.64032%, 27.648926%, 96.899414%)" offset="0.1875"/><stop stop-opacity="1" stop-color="rgb(51.223755%, 28.015137%, 96.699524%)" offset="0.191406"/><stop stop-opacity="1" stop-color="rgb(50.999451%, 28.230286%, 96.499634%)" offset="0.195313"/><stop stop-opacity="1" stop-color="rgb(50.793457%, 28.421021%, 96.499634%)" offset="0.199219"/><stop stop-opacity="1" stop-color="rgb(50.587463%, 28.611755%, 96.499634%)" offset="0.203125"/><stop stop-opacity="1" stop-color="rgb(50.393677%, 28.805542%, 96.499634%)" offset="0.210938"/><stop stop-opacity="1" stop-color="rgb(49.998474%, 29.199219%, 96.311951%)" offset="0.214844"/><stop stop-opacity="1" stop-color="rgb(49.798584%, 29.399109%, 96.124268%)" offset="0.21875"/><stop stop-opacity="1" stop-color="rgb(49.420166%, 29.598999%, 96.112061%)" offset="0.222656"/><stop stop-opacity="1" stop-color="rgb(49.043274%, 29.798889%, 96.099854%)" offset="0.226563"/><stop stop-opacity="1" stop-color="rgb(48.820496%, 30.01709%, 96.099854%)" offset="0.230469"/><stop stop-opacity="1" stop-color="rgb(48.599243%, 30.236816%, 96.099854%)" offset="0.234375"/><stop stop-opacity="1" stop-color="rgb(48.399353%, 30.427551%, 95.898438%)" offset="0.238281"/><stop stop-opacity="1" stop-color="rgb(48.199463%, 30.618286%, 95.698547%)" offset="0.242188"/><stop stop-opacity="1" stop-color="rgb(47.999573%, 30.809021%, 95.698547%)" offset="0.246094"/><stop stop-opacity="1" stop-color="rgb(47.799683%, 30.999756%, 95.698547%)" offset="0.25"/><stop stop-opacity="1" stop-color="rgb(47.648621%, 31.390381%, 95.698547%)" offset="0.253906"/><stop stop-opacity="1" stop-color="rgb(47.499084%, 31.781006%, 95.698547%)" offset="0.257812"/><stop stop-opacity="1" stop-color="rgb(47.299194%, 31.971741%, 95.498657%)" offset="0.261719"/><stop stop-opacity="1" stop-color="rgb(47.099304%, 32.162476%, 95.298767%)" offset="0.265625"/><stop stop-opacity="1" stop-color="rgb(46.876526%, 32.330322%, 95.298767%)" offset="0.269531"/><stop stop-opacity="1" stop-color="rgb(46.655273%, 32.499695%, 95.298767%)" offset="0.273438"/><stop stop-opacity="1" stop-color="rgb(46.276855%, 32.699585%, 95.28656%)" offset="0.277344"/><stop stop-opacity="1" stop-color="rgb(45.899963%, 32.899475%, 95.274353%)" offset="0.28125"/><stop stop-opacity="1" stop-color="rgb(45.698547%, 33.099365%, 95.08667%)" offset="0.285156"/><stop stop-opacity="1" stop-color="rgb(45.498657%, 33.299255%, 94.898987%)" offset="0.289062"/><stop stop-opacity="1" stop-color="rgb(45.304871%, 33.493042%, 94.898987%)" offset="0.296875"/><stop stop-opacity="1" stop-color="rgb(44.90509%, 33.877563%, 94.898987%)" offset="0.300781"/><stop stop-opacity="1" stop-color="rgb(44.699097%, 34.068298%, 94.898987%)" offset="0.304688"/><stop stop-opacity="1" stop-color="rgb(44.499207%, 34.259033%, 94.699097%)" offset="0.308594"/><stop stop-opacity="1" stop-color="rgb(44.299316%, 34.449768%, 94.499207%)" offset="0.3125"/><stop stop-opacity="1" stop-color="rgb(44.082642%, 34.674072%, 94.499207%)" offset="0.316406"/><stop stop-opacity="1" stop-color="rgb(43.867493%, 34.899902%, 94.499207%)" offset="0.320312"/><stop stop-opacity="1" stop-color="rgb(43.482971%, 35.099792%, 94.493103%)" offset="0.324219"/><stop stop-opacity="1" stop-color="rgb(43.099976%, 35.299683%, 94.487%)" offset="0.328125"/><stop stop-opacity="1" stop-color="rgb(42.901611%, 35.496521%, 94.293213%)" offset="0.332031"/><stop stop-opacity="1" stop-color="rgb(42.704773%, 35.693359%, 94.099426%)" offset="0.335938"/><stop stop-opacity="1" stop-color="rgb(42.56134%, 35.884094%, 94.099426%)" offset="0.34375"/><stop stop-opacity="1" stop-color="rgb(42.230225%, 36.264038%, 94.099426%)" offset="0.351562"/><stop stop-opacity="1" stop-color="rgb(41.801453%, 36.676025%, 93.899536%)" offset="0.355469"/><stop stop-opacity="1" stop-color="rgb(41.56189%, 36.898804%, 93.699646%)" offset="0.359375"/><stop stop-opacity="1" stop-color="rgb(41.371155%, 37.098694%, 93.699646%)" offset="0.363281"/><stop stop-opacity="1" stop-color="rgb(41.18042%, 37.298584%, 93.699646%)" offset="0.367188"/><stop stop-opacity="1" stop-color="rgb(40.789795%, 37.44812%, 93.499756%)" offset="0.371094"/><stop stop-opacity="1" stop-color="rgb(40.39917%, 37.599182%, 93.299866%)" offset="0.375"/><stop stop-opacity="1" stop-color="rgb(40.208435%, 37.789917%, 93.299866%)" offset="0.382812"/><stop stop-opacity="1" stop-color="rgb(39.826965%, 38.171387%, 93.299866%)" offset="0.390625"/><stop stop-opacity="1" stop-color="rgb(39.395142%, 38.580322%, 93.09845%)" offset="0.394531"/><stop stop-opacity="1" stop-color="rgb(39.155579%, 38.798523%, 92.89856%)" offset="0.398438"/><stop stop-opacity="1" stop-color="rgb(38.964844%, 38.998413%, 92.89856%)" offset="0.402344"/><stop stop-opacity="1" stop-color="rgb(38.774109%, 39.199829%, 92.89856%)" offset="0.40625"/><stop stop-opacity="1" stop-color="rgb(38.583374%, 39.399719%, 92.89856%)" offset="0.410156"/><stop stop-opacity="1" stop-color="rgb(38.392639%, 39.599609%, 92.89856%)" offset="0.414062"/><stop stop-opacity="1" stop-color="rgb(38.195801%, 39.793396%, 92.704773%)" offset="0.417969"/><stop stop-opacity="1" stop-color="rgb(37.998962%, 39.987183%, 92.510986%)" offset="0.421875"/><stop stop-opacity="1" stop-color="rgb(37.660217%, 40.177917%, 92.504883%)" offset="0.425781"/><stop stop-opacity="1" stop-color="rgb(37.322998%, 40.368652%, 92.498779%)" offset="0.429688"/><stop stop-opacity="1" stop-color="rgb(37.135315%, 40.557861%, 92.498779%)" offset="0.4375"/><stop stop-opacity="1" stop-color="rgb(36.723328%, 40.9729%, 92.349243%)" offset="0.441406"/><stop stop-opacity="1" stop-color="rgb(36.499023%, 41.19873%, 92.199707%)" offset="0.445312"/><stop stop-opacity="1" stop-color="rgb(36.29303%, 41.398621%, 92.199707%)" offset="0.449219"/><stop stop-opacity="1" stop-color="rgb(36.087036%, 41.598511%, 92.199707%)" offset="0.453125"/><stop stop-opacity="1" stop-color="rgb(35.89325%, 41.795349%, 92.199707%)" offset="0.457031"/><stop stop-opacity="1" stop-color="rgb(35.699463%, 41.993713%, 92.199707%)" offset="0.460938"/><stop stop-opacity="1" stop-color="rgb(35.499573%, 42.182922%, 92.012024%)" offset="0.464844"/><stop stop-opacity="1" stop-color="rgb(35.299683%, 42.373657%, 91.824341%)" offset="0.46875"/><stop stop-opacity="1" stop-color="rgb(34.921265%, 42.520142%, 91.812134%)" offset="0.472656"/><stop stop-opacity="1" stop-color="rgb(34.542847%, 42.666626%, 91.799927%)" offset="0.476562"/><stop stop-opacity="1" stop-color="rgb(34.320068%, 42.883301%, 91.799927%)" offset="0.480469"/><stop stop-opacity="1" stop-color="rgb(34.098816%, 43.099976%, 91.799927%)" offset="0.484375"/><stop stop-opacity="1" stop-color="rgb(33.898926%, 43.299866%, 91.598511%)" offset="0.488281"/><stop stop-opacity="1" stop-color="rgb(33.699036%, 43.499756%, 91.398621%)" offset="0.492188"/><stop stop-opacity="1" stop-color="rgb(33.499146%, 43.699646%, 91.398621%)" offset="0.496094"/><stop stop-opacity="1" stop-color="rgb(33.299255%, 43.899536%, 91.398621%)" offset="0.5"/><stop stop-opacity="1" stop-color="rgb(33.099365%, 44.099426%, 91.398621%)" offset="0.503906"/><stop stop-opacity="1" stop-color="rgb(32.899475%, 44.299316%, 91.398621%)" offset="0.507812"/><stop stop-opacity="1" stop-color="rgb(32.699585%, 44.499207%, 91.19873%)" offset="0.511719"/><stop stop-opacity="1" stop-color="rgb(32.499695%, 44.699097%, 90.99884%)" offset="0.515625"/><stop stop-opacity="1" stop-color="rgb(32.327271%, 44.920349%, 90.99884%)" offset="0.519531"/><stop stop-opacity="1" stop-color="rgb(32.154846%, 45.143127%, 90.99884%)" offset="0.523438"/><stop stop-opacity="1" stop-color="rgb(31.776428%, 45.333862%, 90.986633%)" offset="0.527344"/><stop stop-opacity="1" stop-color="rgb(31.399536%, 45.524597%, 90.974426%)" offset="0.53125"/><stop stop-opacity="1" stop-color="rgb(31.199646%, 45.715332%, 90.786743%)" offset="0.535156"/><stop stop-opacity="1" stop-color="rgb(30.999756%, 45.906067%, 90.59906%)" offset="0.539063"/><stop stop-opacity="1" stop-color="rgb(30.805969%, 46.102905%, 90.59906%)" offset="0.542969"/><stop stop-opacity="1" stop-color="rgb(30.612183%, 46.299744%, 90.59906%)" offset="0.546875"/><stop stop-opacity="1" stop-color="rgb(30.404663%, 46.499634%, 90.59906%)" offset="0.550781"/><stop stop-opacity="1" stop-color="rgb(30.198669%, 46.699524%, 90.59906%)" offset="0.554688"/><stop stop-opacity="1" stop-color="rgb(29.998779%, 46.899414%, 90.39917%)" offset="0.558594"/><stop stop-opacity="1" stop-color="rgb(29.798889%, 47.099304%, 90.19928%)" offset="0.5625"/><stop stop-opacity="1" stop-color="rgb(29.58374%, 47.309875%, 90.19928%)" offset="0.566406"/><stop stop-opacity="1" stop-color="rgb(29.368591%, 47.521973%, 90.19928%)" offset="0.570312"/><stop stop-opacity="1" stop-color="rgb(28.98407%, 47.666931%, 90.193176%)" offset="0.574219"/><stop stop-opacity="1" stop-color="rgb(28.599548%, 47.81189%, 90.187073%)" offset="0.578125"/><stop stop-opacity="1" stop-color="rgb(28.40271%, 48.005676%, 89.993286%)" offset="0.582031"/><stop stop-opacity="1" stop-color="rgb(28.205872%, 48.199463%, 89.7995%)" offset="0.585938"/><stop stop-opacity="1" stop-color="rgb(28.015137%, 48.399353%, 89.7995%)" offset="0.589844"/><stop stop-opacity="1" stop-color="rgb(27.824402%, 48.599243%, 89.7995%)" offset="0.59375"/><stop stop-opacity="1" stop-color="rgb(27.677917%, 48.799133%, 89.7995%)" offset="0.597656"/><stop stop-opacity="1" stop-color="rgb(27.531433%, 48.999023%, 89.7995%)" offset="0.601563"/><stop stop-opacity="1" stop-color="rgb(27.296448%, 49.217224%, 89.599609%)" offset="0.605469"/><stop stop-opacity="1" stop-color="rgb(27.061462%, 49.436951%, 89.399719%)" offset="0.609375"/><stop stop-opacity="1" stop-color="rgb(26.870728%, 49.627686%, 89.399719%)" offset="0.617188"/><stop stop-opacity="1" stop-color="rgb(26.289368%, 50.009155%, 89.199829%)" offset="0.621094"/><stop stop-opacity="1" stop-color="rgb(25.898743%, 50.19989%, 88.999939%)" offset="0.625"/><stop stop-opacity="1" stop-color="rgb(25.708008%, 50.39978%, 88.999939%)" offset="0.628906"/><stop stop-opacity="1" stop-color="rgb(25.517273%, 50.59967%, 88.999939%)" offset="0.632812"/><stop stop-opacity="1" stop-color="rgb(25.326538%, 50.799561%, 88.999939%)" offset="0.636719"/><stop stop-opacity="1" stop-color="rgb(25.137329%, 50.999451%, 88.999939%)" offset="0.640625"/><stop stop-opacity="1" stop-color="rgb(24.89624%, 51.220703%, 88.798523%)" offset="0.644531"/><stop stop-opacity="1" stop-color="rgb(24.655151%, 51.443481%, 88.598633%)" offset="0.648438"/><stop stop-opacity="1" stop-color="rgb(24.464417%, 51.634216%, 88.598633%)" offset="0.65625"/><stop stop-opacity="1" stop-color="rgb(24.082947%, 52.01416%, 88.598633%)" offset="0.664063"/><stop stop-opacity="1" stop-color="rgb(23.695374%, 52.351379%, 88.404846%)" offset="0.667969"/><stop stop-opacity="1" stop-color="rgb(23.498535%, 52.49939%, 88.21106%)" offset="0.671875"/><stop stop-opacity="1" stop-color="rgb(23.114014%, 52.69928%, 88.204956%)" offset="0.675781"/><stop stop-opacity="1" stop-color="rgb(22.731018%, 52.89917%, 88.198853%)" offset="0.679688"/><stop stop-opacity="1" stop-color="rgb(22.583008%, 53.09906%, 88.198853%)" offset="0.683594"/><stop stop-opacity="1" stop-color="rgb(22.436523%, 53.29895%, 88.198853%)" offset="0.6875"/><stop stop-opacity="1" stop-color="rgb(22.216797%, 53.514099%, 87.998962%)" offset="0.691406"/><stop stop-opacity="1" stop-color="rgb(21.998596%, 53.730774%, 87.799072%)" offset="0.695312"/><stop stop-opacity="1" stop-color="rgb(21.792603%, 53.921509%, 87.799072%)" offset="0.699219"/><stop stop-opacity="1" stop-color="rgb(21.586609%, 54.112244%, 87.799072%)" offset="0.703125"/><stop stop-opacity="1" stop-color="rgb(21.392822%, 54.30603%, 87.799072%)" offset="0.710938"/><stop stop-opacity="1" stop-color="rgb(20.999146%, 54.699707%, 87.658691%)" offset="0.714844"/><stop stop-opacity="1" stop-color="rgb(20.799255%, 54.899597%, 87.518311%)" offset="0.71875"/><stop stop-opacity="1" stop-color="rgb(20.420837%, 55.099487%, 87.509155%)" offset="0.722656"/><stop stop-opacity="1" stop-color="rgb(20.042419%, 55.299377%, 87.5%)" offset="0.726563"/><stop stop-opacity="1" stop-color="rgb(19.821167%, 55.517578%, 87.5%)" offset="0.730469"/><stop stop-opacity="1" stop-color="rgb(19.599915%, 55.737305%, 87.5%)" offset="0.734375"/><stop stop-opacity="1" stop-color="rgb(19.398499%, 55.926514%, 87.298584%)" offset="0.738281"/><stop stop-opacity="1" stop-color="rgb(19.198608%, 56.117249%, 87.098694%)" offset="0.742188"/><stop stop-opacity="1" stop-color="rgb(18.998718%, 56.307983%, 87.098694%)" offset="0.746094"/><stop stop-opacity="1" stop-color="rgb(18.798828%, 56.498718%, 87.098694%)" offset="0.75"/><stop stop-opacity="1" stop-color="rgb(18.598938%, 56.889343%, 87.098694%)" offset="0.753906"/><stop stop-opacity="1" stop-color="rgb(18.399048%, 57.279968%, 87.098694%)" offset="0.757813"/><stop stop-opacity="1" stop-color="rgb(18.199158%, 57.424927%, 86.898804%)" offset="0.761719"/><stop stop-opacity="1" stop-color="rgb(17.999268%, 57.571411%, 86.698914%)" offset="0.765625"/><stop stop-opacity="1" stop-color="rgb(17.782593%, 57.785034%, 86.698914%)" offset="0.769531"/><stop stop-opacity="1" stop-color="rgb(17.565918%, 57.998657%, 86.698914%)" offset="0.773438"/><stop stop-opacity="1" stop-color="rgb(17.23175%, 58.198547%, 86.686707%)" offset="0.777344"/><stop stop-opacity="1" stop-color="rgb(16.899109%, 58.399963%, 86.6745%)" offset="0.78125"/><stop stop-opacity="1" stop-color="rgb(16.699219%, 58.599854%, 86.486816%)" offset="0.785156"/><stop stop-opacity="1" stop-color="rgb(16.499329%, 58.799744%, 86.299133%)" offset="0.789063"/><stop stop-opacity="1" stop-color="rgb(16.305542%, 58.99353%, 86.299133%)" offset="0.796875"/><stop stop-opacity="1" stop-color="rgb(15.905762%, 59.376526%, 86.299133%)" offset="0.800781"/><stop stop-opacity="1" stop-color="rgb(15.699768%, 59.567261%, 86.299133%)" offset="0.804688"/><stop stop-opacity="1" stop-color="rgb(15.499878%, 59.757996%, 86.099243%)" offset="0.808594"/><stop stop-opacity="1" stop-color="rgb(15.299988%, 59.94873%, 85.899353%)" offset="0.8125"/><stop stop-opacity="1" stop-color="rgb(15.083313%, 60.173035%, 85.899353%)" offset="0.816406"/><stop stop-opacity="1" stop-color="rgb(14.868164%, 60.398865%, 85.899353%)" offset="0.820313"/><stop stop-opacity="1" stop-color="rgb(14.483643%, 60.598755%, 85.89325%)" offset="0.824219"/><stop stop-opacity="1" stop-color="rgb(14.099121%, 60.798645%, 85.887146%)" offset="0.828125"/><stop stop-opacity="1" stop-color="rgb(13.902283%, 60.995483%, 85.693359%)" offset="0.832031"/><stop stop-opacity="1" stop-color="rgb(13.705444%, 61.192322%, 85.499573%)" offset="0.835938"/><stop stop-opacity="1" stop-color="rgb(13.514709%, 61.383057%, 85.499573%)" offset="0.84375"/><stop stop-opacity="1" stop-color="rgb(13.13324%, 61.764526%, 85.499573%)" offset="0.851563"/><stop stop-opacity="1" stop-color="rgb(12.705994%, 62.176514%, 85.299683%)" offset="0.855469"/><stop stop-opacity="1" stop-color="rgb(12.471008%, 62.399292%, 85.099792%)" offset="0.859375"/><stop stop-opacity="1" stop-color="rgb(12.32605%, 62.548828%, 85.099792%)" offset="0.867188"/><stop stop-opacity="1" stop-color="rgb(11.790466%, 62.89978%, 84.898376%)" offset="0.871094"/><stop stop-opacity="1" stop-color="rgb(11.399841%, 63.09967%, 84.698486%)" offset="0.875"/><stop stop-opacity="1" stop-color="rgb(11.209106%, 63.290405%, 84.698486%)" offset="0.882813"/><stop stop-opacity="1" stop-color="rgb(10.827637%, 63.670349%, 84.698486%)" offset="0.890625"/><stop stop-opacity="1" stop-color="rgb(10.395813%, 64.079285%, 84.498596%)" offset="0.894531"/><stop stop-opacity="1" stop-color="rgb(10.15625%, 64.299011%, 84.298706%)" offset="0.898438"/><stop stop-opacity="1" stop-color="rgb(9.965515%, 64.498901%, 84.298706%)" offset="0.902344"/><stop stop-opacity="1" stop-color="rgb(9.77478%, 64.698792%, 84.298706%)" offset="0.90625"/><stop stop-opacity="1" stop-color="rgb(9.584045%, 64.898682%, 84.298706%)" offset="0.910156"/><stop stop-opacity="1" stop-color="rgb(9.393311%, 65.098572%, 84.298706%)" offset="0.914063"/><stop stop-opacity="1" stop-color="rgb(9.196472%, 65.292358%, 84.104919%)" offset="0.917969"/><stop stop-opacity="1" stop-color="rgb(8.999634%, 65.486145%, 83.911133%)" offset="0.921875"/><stop stop-opacity="1" stop-color="rgb(8.615112%, 65.67688%, 83.905029%)" offset="0.925781"/><stop stop-opacity="1" stop-color="rgb(8.230591%, 65.867615%, 83.898926%)" offset="0.929688"/><stop stop-opacity="1" stop-color="rgb(8.039856%, 66.05835%, 83.898926%)" offset="0.9375"/><stop stop-opacity="1" stop-color="rgb(7.673645%, 66.473389%, 83.699036%)" offset="0.941406"/><stop stop-opacity="1" stop-color="rgb(7.499695%, 66.699219%, 83.499146%)" offset="0.945313"/><stop stop-opacity="1" stop-color="rgb(7.292175%, 66.899109%, 83.499146%)" offset="0.949219"/><stop stop-opacity="1" stop-color="rgb(7.086182%, 67.098999%, 83.499146%)" offset="0.953125"/><stop stop-opacity="1" stop-color="rgb(6.892395%, 67.295837%, 83.499146%)" offset="0.957031"/><stop stop-opacity="1" stop-color="rgb(6.698608%, 67.492676%, 83.499146%)" offset="0.960938"/><stop stop-opacity="1" stop-color="rgb(6.498718%, 67.636108%, 83.311462%)" offset="0.964844"/><stop stop-opacity="1" stop-color="rgb(6.298828%, 67.781067%, 83.123779%)" offset="0.96875"/><stop stop-opacity="1" stop-color="rgb(5.92041%, 67.967224%, 83.111572%)" offset="0.972656"/><stop stop-opacity="1" stop-color="rgb(5.543518%, 68.154907%, 83.099365%)" offset="0.976562"/><stop stop-opacity="1" stop-color="rgb(5.32074%, 68.37616%, 83.099365%)" offset="0.980469"/><stop stop-opacity="1" stop-color="rgb(5.099487%, 68.598938%, 83.099365%)" offset="0.984375"/><stop stop-opacity="1" stop-color="rgb(4.899597%, 68.798828%, 82.899475%)" offset="0.988281"/><stop stop-opacity="1" stop-color="rgb(4.699707%, 68.998718%, 82.699585%)" offset="0.992187"/><stop stop-opacity="1" stop-color="rgb(4.499817%, 69.198608%, 82.699585%)" offset="0.996094"/><stop stop-opacity="1" stop-color="rgb(4.299927%, 69.398499%, 82.699585%)" offset="1"/></linearGradient><clipPath id="id5"><path d="M 429.910156 507.007812 L 732.910156 507.007812 L 732.910156 810 L 429.910156 810 Z M 429.910156 507.007812 " clip-rule="nonzero"/></clipPath><clipPath id="id6"><path d="M 449.460938 702.492188 L 459.234375 702.492188 L 459.234375 712.265625 L 449.460938 712.265625 Z M 449.460938 682.945312 L 459.234375 682.945312 L 459.234375 692.71875 L 449.460938 692.71875 Z M 449.460938 722.039062 L 459.234375 722.039062 L 459.234375 731.816406 L 449.460938 731.816406 Z M 449.460938 663.394531 L 459.234375 663.394531 L 459.234375 673.167969 L 449.460938 673.167969 Z M 644.941406 634.074219 L 693.8125 634.074219 L 693.8125 643.847656 L 644.941406 643.847656 Z M 635.167969 643.847656 L 625.394531 643.847656 L 625.394531 634.074219 L 635.167969 634.074219 Z M 684.039062 614.523438 L 635.167969 614.523438 L 635.167969 594.976562 L 684.039062 594.976562 Z M 693.8125 585.203125 L 625.394531 585.203125 L 625.394531 624.296875 L 693.8125 624.296875 Z M 552.089844 673.167969 C 549.398438 673.167969 547.203125 670.972656 547.203125 668.28125 C 547.203125 665.589844 549.398438 663.394531 552.089844 663.394531 C 554.78125 663.394531 556.976562 665.589844 556.976562 668.28125 C 556.976562 670.972656 554.78125 673.167969 552.089844 673.167969 Z M 552.089844 653.621094 C 545.730469 653.621094 540.347656 657.726562 538.324219 663.394531 L 527.652344 663.394531 L 527.652344 673.167969 L 538.324219 673.167969 C 540.347656 678.839844 545.730469 682.945312 552.089844 682.945312 C 558.445312 682.945312 563.828125 678.839844 565.851562 673.167969 L 596.074219 673.167969 L 596.074219 663.394531 L 565.851562 663.394531 C 563.828125 657.726562 558.445312 653.621094 552.089844 653.621094 Z M 547.203125 597.992188 C 547.203125 596.332031 548.558594 594.976562 550.21875 594.976562 C 550.695312 594.976562 551.152344 595.089844 551.574219 595.300781 L 574.863281 606.945312 C 575.875 607.441406 576.523438 608.492188 576.523438 609.636719 C 576.523438 610.78125 575.875 611.832031 574.84375 612.328125 L 551.574219 623.972656 C 549.664062 624.929688 547.203125 623.402344 547.203125 621.28125 Z M 550.21875 634.074219 C 552.203125 634.074219 554.167969 633.613281 555.945312 632.71875 L 579.214844 621.089844 C 583.585938 618.894531 586.296875 614.523438 586.296875 609.636719 C 586.296875 604.75 583.585938 600.378906 579.214844 598.183594 L 555.945312 586.558594 C 554.167969 585.660156 552.203125 585.203125 550.21875 585.203125 C 543.171875 585.203125 537.425781 590.949219 537.425781 597.992188 L 537.425781 621.28125 C 537.425781 628.328125 543.171875 634.074219 550.21875 634.074219 Z M 723.136719 594.976562 L 723.136719 712.265625 L 693.8125 712.265625 L 693.8125 702.492188 L 713.363281 702.492188 L 713.363281 594.976562 Z M 669.378906 800.234375 C 661.285156 800.234375 654.71875 793.667969 654.71875 785.574219 L 654.71875 780.6875 L 684.039062 780.6875 L 684.039062 785.574219 C 684.039062 793.667969 677.472656 800.234375 669.378906 800.234375 Z M 620.507812 712.265625 L 620.507812 722.039062 C 620.507812 727.425781 616.117188 731.816406 610.734375 731.816406 C 605.351562 731.816406 600.960938 727.425781 600.960938 722.039062 L 600.960938 712.265625 L 498.332031 712.265625 L 498.332031 594.976562 L 508.105469 594.976562 L 508.105469 702.492188 L 644.941406 702.492188 L 644.941406 712.265625 Z M 591.183594 800.234375 L 454.347656 800.234375 C 446.253906 800.234375 439.683594 793.667969 439.683594 785.574219 L 439.683594 751.363281 L 605.847656 751.363281 L 605.847656 785.574219 C 605.847656 793.667969 599.28125 800.234375 591.183594 800.234375 Z M 454.347656 516.78125 L 498.332031 516.78125 L 498.332031 531.445312 C 498.332031 536.960938 500.238281 542 503.351562 546.105469 L 439.683594 546.105469 L 439.683594 531.445312 C 439.683594 523.351562 446.253906 516.78125 454.347656 516.78125 Z M 605.847656 531.445312 L 605.847656 546.105469 L 542.179688 546.105469 C 545.292969 542 547.203125 536.960938 547.203125 531.445312 L 547.203125 516.78125 L 591.183594 516.78125 C 599.28125 516.78125 605.847656 523.351562 605.847656 531.445312 Z M 508.105469 531.445312 L 508.105469 516.78125 L 537.425781 516.78125 L 537.425781 531.445312 C 537.425781 539.539062 530.859375 546.105469 522.765625 546.105469 C 514.671875 546.105469 508.105469 539.539062 508.105469 531.445312 Z M 591.183594 722.039062 C 591.183594 731.128906 597.445312 738.707031 605.847656 740.902344 L 605.847656 741.589844 L 439.683594 741.589844 L 439.683594 555.878906 L 605.847656 555.878906 L 605.847656 570.675781 C 601.742188 567.5625 596.703125 565.652344 591.183594 565.652344 L 508.105469 565.652344 L 508.105469 585.203125 L 488.554688 585.203125 L 488.554688 722.039062 Z M 517.878906 594.976562 L 517.878906 575.429688 L 591.183594 575.429688 C 599.28125 575.429688 605.847656 581.996094 605.847656 590.089844 L 605.847656 692.71875 L 517.878906 692.71875 Z M 674.265625 692.71875 L 684.039062 692.71875 L 684.039062 770.910156 L 674.265625 770.910156 Z M 654.71875 692.71875 L 664.492188 692.71875 L 664.492188 770.910156 L 654.71875 770.910156 Z M 657.734375 682.945312 L 666.6875 665.054688 C 667.699219 663.015625 671.058594 662.996094 672.070312 665.074219 L 681.023438 682.945312 Z M 630.28125 575.429688 L 703.589844 575.429688 L 703.589844 692.71875 L 693.8125 692.71875 L 693.8125 686.6875 L 680.832031 660.703125 C 678.636719 656.332031 674.265625 653.621094 669.378906 653.621094 C 664.492188 653.621094 660.121094 656.332031 657.925781 660.703125 L 644.941406 686.6875 L 644.941406 692.71875 L 615.621094 692.71875 L 615.621094 590.089844 C 615.621094 581.996094 622.1875 575.429688 630.28125 575.429688 Z M 713.363281 565.652344 L 630.28125 565.652344 C 624.765625 565.652344 619.726562 567.5625 615.621094 570.675781 L 615.621094 531.445312 C 615.621094 517.964844 604.664062 507.007812 591.183594 507.007812 L 454.347656 507.007812 C 440.867188 507.007812 429.910156 517.964844 429.910156 531.445312 L 429.910156 785.574219 C 429.910156 799.050781 440.867188 810.007812 454.347656 810.007812 L 591.183594 810.007812 C 604.664062 810.007812 615.621094 799.050781 615.621094 785.574219 L 615.621094 740.902344 C 624.019531 738.707031 630.28125 731.128906 630.28125 722.039062 L 644.941406 722.039062 L 644.941406 785.574219 C 644.941406 799.050781 655.902344 810.007812 669.378906 810.007812 C 682.855469 810.007812 693.8125 799.050781 693.8125 785.574219 L 693.8125 722.039062 L 732.910156 722.039062 L 732.910156 585.203125 L 713.363281 585.203125 Z M 586.296875 531.445312 C 586.296875 528.753906 588.492188 526.558594 591.183594 526.558594 C 593.875 526.558594 596.074219 528.753906 596.074219 531.445312 C 596.074219 534.136719 593.875 536.332031 591.183594 536.332031 C 588.492188 536.332031 586.296875 534.136719 586.296875 531.445312 Z M 527.652344 531.445312 C 527.652344 534.136719 525.457031 536.332031 522.765625 536.332031 C 520.074219 536.332031 517.878906 534.136719 517.878906 531.445312 C 517.878906 528.753906 520.074219 526.558594 522.765625 526.558594 C 525.457031 526.558594 527.652344 528.753906 527.652344 531.445312 Z M 576.523438 780.6875 L 576.523438 770.910156 L 586.296875 770.910156 L 586.296875 780.6875 Z M 586.296875 761.136719 L 576.523438 761.136719 C 571.140625 761.136719 566.75 765.527344 566.75 770.910156 L 566.75 780.6875 C 566.75 786.070312 571.140625 790.460938 576.523438 790.460938 L 586.296875 790.460938 C 591.679688 790.460938 596.074219 786.070312 596.074219 780.6875 L 596.074219 770.910156 C 596.074219 765.527344 591.679688 761.136719 586.296875 761.136719 Z M 459.234375 780.6875 L 459.234375 770.910156 L 469.007812 770.910156 L 469.007812 780.6875 Z M 469.007812 761.136719 L 459.234375 761.136719 C 453.851562 761.136719 449.460938 765.527344 449.460938 770.910156 L 449.460938 780.6875 C 449.460938 786.070312 453.851562 790.460938 459.234375 790.460938 L 469.007812 790.460938 C 474.390625 790.460938 478.78125 786.070312 478.78125 780.6875 L 478.78125 770.910156 C 478.78125 765.527344 474.390625 761.136719 469.007812 761.136719 Z M 508.105469 780.6875 L 508.105469 770.910156 L 537.425781 770.910156 L 537.425781 780.6875 Z M 537.425781 761.136719 L 508.105469 761.136719 C 502.722656 761.136719 498.332031 765.527344 498.332031 770.910156 L 498.332031 780.6875 C 498.332031 786.070312 502.722656 790.460938 508.105469 790.460938 L 537.425781 790.460938 C 542.8125 790.460938 547.203125 786.070312 547.203125 780.6875 L 547.203125 770.910156 C 547.203125 765.527344 542.8125 761.136719 537.425781 761.136719 Z M 537.425781 761.136719 " clip-rule="nonzero"/></clipPath><clipPath id="id7"><path d="M 449.460938 702.492188 L 459.234375 702.492188 L 459.234375 712.265625 L 449.460938 712.265625 Z M 449.460938 682.945312 L 459.234375 682.945312 L 459.234375 692.71875 L 449.460938 692.71875 Z M 449.460938 722.039062 L 459.234375 722.039062 L 459.234375 731.816406 L 449.460938 731.816406 Z M 449.460938 663.394531 L 459.234375 663.394531 L 459.234375 673.167969 L 449.460938 673.167969 Z M 644.941406 634.074219 L 693.8125 634.074219 L 693.8125 643.847656 L 644.941406 643.847656 Z M 635.167969 643.847656 L 625.394531 643.847656 L 625.394531 634.074219 L 635.167969 634.074219 Z M 684.039062 614.523438 L 635.167969 614.523438 L 635.167969 594.976562 L 684.039062 594.976562 Z M 693.8125 585.203125 L 625.394531 585.203125 L 625.394531 624.296875 L 693.8125 624.296875 Z M 552.089844 673.167969 C 549.398438 673.167969 547.203125 670.972656 547.203125 668.28125 C 547.203125 665.589844 549.398438 663.394531 552.089844 663.394531 C 554.78125 663.394531 556.976562 665.589844 556.976562 668.28125 C 556.976562 670.972656 554.78125 673.167969 552.089844 673.167969 Z M 552.089844 653.621094 C 545.730469 653.621094 540.347656 657.726562 538.324219 663.394531 L 527.652344 663.394531 L 527.652344 673.167969 L 538.324219 673.167969 C 540.347656 678.839844 545.730469 682.945312 552.089844 682.945312 C 558.445312 682.945312 563.828125 678.839844 565.851562 673.167969 L 596.074219 673.167969 L 596.074219 663.394531 L 565.851562 663.394531 C 563.828125 657.726562 558.445312 653.621094 552.089844 653.621094 Z M 547.203125 597.992188 C 547.203125 596.332031 548.558594 594.976562 550.21875 594.976562 C 550.695312 594.976562 551.152344 595.089844 551.574219 595.300781 L 574.863281 606.945312 C 575.875 607.441406 576.523438 608.492188 576.523438 609.636719 C 576.523438 610.78125 575.875 611.832031 574.84375 612.328125 L 551.574219 623.972656 C 549.664062 624.929688 547.203125 623.402344 547.203125 621.28125 Z M 550.21875 634.074219 C 552.203125 634.074219 554.167969 633.613281 555.945312 632.71875 L 579.214844 621.089844 C 583.585938 618.894531 586.296875 614.523438 586.296875 609.636719 C 586.296875 604.75 583.585938 600.378906 579.214844 598.183594 L 555.945312 586.558594 C 554.167969 585.660156 552.203125 585.203125 550.21875 585.203125 C 543.171875 585.203125 537.425781 590.949219 537.425781 597.992188 L 537.425781 621.28125 C 537.425781 628.328125 543.171875 634.074219 550.21875 634.074219 Z M 723.136719 594.976562 L 723.136719 712.265625 L 693.8125 712.265625 L 693.8125 702.492188 L 713.363281 702.492188 L 713.363281 594.976562 Z M 669.378906 800.234375 C 661.285156 800.234375 654.71875 793.667969 654.71875 785.574219 L 654.71875 780.6875 L 684.039062 780.6875 L 684.039062 785.574219 C 684.039062 793.667969 677.472656 800.234375 669.378906 800.234375 Z M 620.507812 712.265625 L 620.507812 722.039062 C 620.507812 727.425781 616.117188 731.816406 610.734375 731.816406 C 605.351562 731.816406 600.960938 727.425781 600.960938 722.039062 L 600.960938 712.265625 L 498.332031 712.265625 L 498.332031 594.976562 L 508.105469 594.976562 L 508.105469 702.492188 L 644.941406 702.492188 L 644.941406 712.265625 Z M 591.183594 800.234375 L 454.347656 800.234375 C 446.253906 800.234375 439.683594 793.667969 439.683594 785.574219 L 439.683594 751.363281 L 605.847656 751.363281 L 605.847656 785.574219 C 605.847656 793.667969 599.28125 800.234375 591.183594 800.234375 Z M 454.347656 516.78125 L 498.332031 516.78125 L 498.332031 531.445312 C 498.332031 536.960938 500.238281 542 503.351562 546.105469 L 439.683594 546.105469 L 439.683594 531.445312 C 439.683594 523.351562 446.253906 516.78125 454.347656 516.78125 Z M 605.847656 531.445312 L 605.847656 546.105469 L 542.179688 546.105469 C 545.292969 542 547.203125 536.960938 547.203125 531.445312 L 547.203125 516.78125 L 591.183594 516.78125 C 599.28125 516.78125 605.847656 523.351562 605.847656 531.445312 Z M 508.105469 531.445312 L 508.105469 516.78125 L 537.425781 516.78125 L 537.425781 531.445312 C 537.425781 539.539062 530.859375 546.105469 522.765625 546.105469 C 514.671875 546.105469 508.105469 539.539062 508.105469 531.445312 Z M 591.183594 722.039062 C 591.183594 731.128906 597.445312 738.707031 605.847656 740.902344 L 605.847656 741.589844 L 439.683594 741.589844 L 439.683594 555.878906 L 605.847656 555.878906 L 605.847656 570.675781 C 601.742188 567.5625 596.703125 565.652344 591.183594 565.652344 L 508.105469 565.652344 L 508.105469 585.203125 L 488.554688 585.203125 L 488.554688 722.039062 Z M 517.878906 594.976562 L 517.878906 575.429688 L 591.183594 575.429688 C 599.28125 575.429688 605.847656 581.996094 605.847656 590.089844 L 605.847656 692.71875 L 517.878906 692.71875 Z M 674.265625 692.71875 L 684.039062 692.71875 L 684.039062 770.910156 L 674.265625 770.910156 Z M 654.71875 692.71875 L 664.492188 692.71875 L 664.492188 770.910156 L 654.71875 770.910156 Z M 657.734375 682.945312 L 666.6875 665.054688 C 667.699219 663.015625 671.058594 662.996094 672.070312 665.074219 L 681.023438 682.945312 Z M 630.28125 575.429688 L 703.589844 575.429688 L 703.589844 692.71875 L 693.8125 692.71875 L 693.8125 686.6875 L 680.832031 660.703125 C 678.636719 656.332031 674.265625 653.621094 669.378906 653.621094 C 664.492188 653.621094 660.121094 656.332031 657.925781 660.703125 L 644.941406 686.6875 L 644.941406 692.71875 L 615.621094 692.71875 L 615.621094 590.089844 C 615.621094 581.996094 622.1875 575.429688 630.28125 575.429688 Z M 713.363281 565.652344 L 630.28125 565.652344 C 624.765625 565.652344 619.726562 567.5625 615.621094 570.675781 L 615.621094 531.445312 C 615.621094 517.964844 604.664062 507.007812 591.183594 507.007812 L 454.347656 507.007812 C 440.867188 507.007812 429.910156 517.964844 429.910156 531.445312 L 429.910156 785.574219 C 429.910156 799.050781 440.867188 810.007812 454.347656 810.007812 L 591.183594 810.007812 C 604.664062 810.007812 615.621094 799.050781 615.621094 785.574219 L 615.621094 740.902344 C 624.019531 738.707031 630.28125 731.128906 630.28125 722.039062 L 644.941406 722.039062 L 644.941406 785.574219 C 644.941406 799.050781 655.902344 810.007812 669.378906 810.007812 C 682.855469 810.007812 693.8125 799.050781 693.8125 785.574219 L 693.8125 722.039062 L 732.910156 722.039062 L 732.910156 585.203125 L 713.363281 585.203125 Z M 586.296875 531.445312 C 586.296875 528.753906 588.492188 526.558594 591.183594 526.558594 C 593.875 526.558594 596.074219 528.753906 596.074219 531.445312 C 596.074219 534.136719 593.875 536.332031 591.183594 536.332031 C 588.492188 536.332031 586.296875 534.136719 586.296875 531.445312 Z M 527.652344 531.445312 C 527.652344 534.136719 525.457031 536.332031 522.765625 536.332031 C 520.074219 536.332031 517.878906 534.136719 517.878906 531.445312 C 517.878906 528.753906 520.074219 526.558594 522.765625 526.558594 C 525.457031 526.558594 527.652344 528.753906 527.652344 531.445312 Z M 576.523438 780.6875 L 576.523438 770.910156 L 586.296875 770.910156 L 586.296875 780.6875 Z M 586.296875 761.136719 L 576.523438 761.136719 C 571.140625 761.136719 566.75 765.527344 566.75 770.910156 L 566.75 780.6875 C 566.75 786.070312 571.140625 790.460938 576.523438 790.460938 L 586.296875 790.460938 C 591.679688 790.460938 596.074219 786.070312 596.074219 780.6875 L 596.074219 770.910156 C 596.074219 765.527344 591.679688 761.136719 586.296875 761.136719 Z M 459.234375 780.6875 L 459.234375 770.910156 L 469.007812 770.910156 L 469.007812 780.6875 Z M 469.007812 761.136719 L 459.234375 761.136719 C 453.851562 761.136719 449.460938 765.527344 449.460938 770.910156 L 449.460938 780.6875 C 449.460938 786.070312 453.851562 790.460938 459.234375 790.460938 L 469.007812 790.460938 C 474.390625 790.460938 478.78125 786.070312 478.78125 780.6875 L 478.78125 770.910156 C 478.78125 765.527344 474.390625 761.136719 469.007812 761.136719 Z M 508.105469 780.6875 L 508.105469 770.910156 L 537.425781 770.910156 L 537.425781 780.6875 Z M 537.425781 761.136719 L 508.105469 761.136719 C 502.722656 761.136719 498.332031 765.527344 498.332031 770.910156 L 498.332031 780.6875 C 498.332031 786.070312 502.722656 790.460938 508.105469 790.460938 L 537.425781 790.460938 C 542.8125 790.460938 547.203125 786.070312 547.203125 780.6875 L 547.203125 770.910156 C 547.203125 765.527344 542.8125 761.136719 537.425781 761.136719 " clip-rule="nonzero"/></clipPath><linearGradient x1="0.0000282021" gradientTransform="matrix(0, -303.000027, 303.000027, 0, 581.411071, 810.008524)" y1="0" x2="1" gradientUnits="userSpaceOnUse" y2="0" id="id8"><stop stop-opacity="1" stop-color="rgb(62.39624%, 18.4021%, 100%)" offset="0"/><stop stop-opacity="1" stop-color="rgb(62.197876%, 18.600464%, 100%)" offset="0.00390625"/><stop stop-opacity="1" stop-color="rgb(61.999512%, 18.798828%, 100%)" offset="0.0078125"/><stop stop-opacity="1" stop-color="rgb(61.799622%, 18.998718%, 99.798584%)" offset="0.0117188"/><stop stop-opacity="1" stop-color="rgb(61.599731%, 19.198608%, 99.598694%)" offset="0.015625"/><stop stop-opacity="1" stop-color="rgb(61.375427%, 19.421387%, 99.598694%)" offset="0.0195313"/><stop stop-opacity="1" stop-color="rgb(61.152649%, 19.645691%, 99.598694%)" offset="0.0234375"/><stop stop-opacity="1" stop-color="rgb(60.775757%, 19.836426%, 99.584961%)" offset="0.0273437"/><stop stop-opacity="1" stop-color="rgb(60.398865%, 20.027161%, 99.571228%)" offset="0.03125"/><stop stop-opacity="1" stop-color="rgb(60.198975%, 20.217896%, 99.385071%)" offset="0.0351562"/><stop stop-opacity="1" stop-color="rgb(59.999084%, 20.40863%, 99.198914%)" offset="0.0390625"/><stop stop-opacity="1" stop-color="rgb(59.803772%, 20.603943%, 99.198914%)" offset="0.046875"/><stop stop-opacity="1" stop-color="rgb(59.403992%, 20.999146%, 99.198914%)" offset="0.0507812"/><stop stop-opacity="1" stop-color="rgb(59.199524%, 21.199036%, 99.198914%)" offset="0.0546875"/><stop stop-opacity="1" stop-color="rgb(58.999634%, 21.398926%, 98.999023%)" offset="0.0585938"/><stop stop-opacity="1" stop-color="rgb(58.799744%, 21.598816%, 98.799133%)" offset="0.0625"/><stop stop-opacity="1" stop-color="rgb(58.581543%, 21.815491%, 98.799133%)" offset="0.0664062"/><stop stop-opacity="1" stop-color="rgb(58.364868%, 22.033691%, 98.799133%)" offset="0.0703125"/><stop stop-opacity="1" stop-color="rgb(57.981873%, 22.221375%, 98.791504%)" offset="0.0742188"/><stop stop-opacity="1" stop-color="rgb(57.598877%, 22.410583%, 98.783875%)" offset="0.078125"/><stop stop-opacity="1" stop-color="rgb(57.449341%, 22.554016%, 98.591614%)" offset="0.0859375"/><stop stop-opacity="1" stop-color="rgb(57.110596%, 22.898865%, 98.399353%)" offset="0.0898438"/><stop stop-opacity="1" stop-color="rgb(56.921387%, 23.098755%, 98.399353%)" offset="0.09375"/><stop stop-opacity="1" stop-color="rgb(56.730652%, 23.298645%, 98.399353%)" offset="0.0976562"/><stop stop-opacity="1" stop-color="rgb(56.539917%, 23.498535%, 98.399353%)" offset="0.101562"/><stop stop-opacity="1" stop-color="rgb(56.298828%, 23.718262%, 98.199463%)" offset="0.105469"/><stop stop-opacity="1" stop-color="rgb(56.059265%, 23.939514%, 97.999573%)" offset="0.109375"/><stop stop-opacity="1" stop-color="rgb(55.86853%, 24.130249%, 97.999573%)" offset="0.117188"/><stop stop-opacity="1" stop-color="rgb(55.288696%, 24.511719%, 97.799683%)" offset="0.121094"/><stop stop-opacity="1" stop-color="rgb(54.899597%, 24.702454%, 97.599792%)" offset="0.125"/><stop stop-opacity="1" stop-color="rgb(54.707336%, 24.900818%, 97.599792%)" offset="0.128906"/><stop stop-opacity="1" stop-color="rgb(54.515076%, 25.099182%, 97.599792%)" offset="0.132812"/><stop stop-opacity="1" stop-color="rgb(54.324341%, 25.299072%, 97.599792%)" offset="0.136719"/><stop stop-opacity="1" stop-color="rgb(54.133606%, 25.498962%, 97.599792%)" offset="0.140625"/><stop stop-opacity="1" stop-color="rgb(53.892517%, 25.721741%, 97.44873%)" offset="0.144531"/><stop stop-opacity="1" stop-color="rgb(53.652954%, 25.946045%, 97.299194%)" offset="0.148438"/><stop stop-opacity="1" stop-color="rgb(53.462219%, 26.135254%, 97.299194%)" offset="0.15625"/><stop stop-opacity="1" stop-color="rgb(53.08075%, 26.516724%, 97.299194%)" offset="0.164063"/><stop stop-opacity="1" stop-color="rgb(52.694702%, 26.902771%, 97.103882%)" offset="0.167969"/><stop stop-opacity="1" stop-color="rgb(52.49939%, 27.099609%, 96.910095%)" offset="0.171875"/><stop stop-opacity="1" stop-color="rgb(52.163696%, 27.2995%, 96.903992%)" offset="0.175781"/><stop stop-opacity="1" stop-color="rgb(51.828003%, 27.49939%, 96.899414%)" offset="0.179688"/><stop stop-opacity="1" stop-color="rgb(51.637268%, 27.648926%, 96.899414%)" offset="0.1875"/><stop stop-opacity="1" stop-color="rgb(51.222229%, 28.016663%, 96.699524%)" offset="0.191406"/><stop stop-opacity="1" stop-color="rgb(50.999451%, 28.233337%, 96.499634%)" offset="0.195312"/><stop stop-opacity="1" stop-color="rgb(50.791931%, 28.422546%, 96.499634%)" offset="0.199219"/><stop stop-opacity="1" stop-color="rgb(50.584412%, 28.613281%, 96.499634%)" offset="0.203125"/><stop stop-opacity="1" stop-color="rgb(50.392151%, 28.805542%, 96.499634%)" offset="0.210937"/><stop stop-opacity="1" stop-color="rgb(49.998474%, 29.199219%, 96.310425%)" offset="0.214844"/><stop stop-opacity="1" stop-color="rgb(49.798584%, 29.399109%, 96.122742%)" offset="0.21875"/><stop stop-opacity="1" stop-color="rgb(49.41864%, 29.598999%, 96.110535%)" offset="0.222656"/><stop stop-opacity="1" stop-color="rgb(49.040222%, 29.798889%, 96.099854%)" offset="0.226562"/><stop stop-opacity="1" stop-color="rgb(48.81897%, 30.018616%, 96.099854%)" offset="0.230469"/><stop stop-opacity="1" stop-color="rgb(48.599243%, 30.238342%, 96.099854%)" offset="0.234375"/><stop stop-opacity="1" stop-color="rgb(48.399353%, 30.429077%, 95.898438%)" offset="0.238281"/><stop stop-opacity="1" stop-color="rgb(48.199463%, 30.619812%, 95.698547%)" offset="0.242188"/><stop stop-opacity="1" stop-color="rgb(47.998047%, 30.810547%, 95.698547%)" offset="0.246094"/><stop stop-opacity="1" stop-color="rgb(47.798157%, 31.001282%, 95.698547%)" offset="0.25"/><stop stop-opacity="1" stop-color="rgb(47.648621%, 31.391907%, 95.698547%)" offset="0.253906"/><stop stop-opacity="1" stop-color="rgb(47.499084%, 31.782532%, 95.698547%)" offset="0.257812"/><stop stop-opacity="1" stop-color="rgb(47.299194%, 31.973267%, 95.498657%)" offset="0.261719"/><stop stop-opacity="1" stop-color="rgb(47.099304%, 32.164001%, 95.298767%)" offset="0.265625"/><stop stop-opacity="1" stop-color="rgb(46.876526%, 32.331848%, 95.298767%)" offset="0.269531"/><stop stop-opacity="1" stop-color="rgb(46.653748%, 32.499695%, 95.298767%)" offset="0.273438"/><stop stop-opacity="1" stop-color="rgb(46.276855%, 32.699585%, 95.285034%)" offset="0.277344"/><stop stop-opacity="1" stop-color="rgb(45.899963%, 32.899475%, 95.272827%)" offset="0.28125"/><stop stop-opacity="1" stop-color="rgb(45.698547%, 33.099365%, 95.085144%)" offset="0.285156"/><stop stop-opacity="1" stop-color="rgb(45.498657%, 33.299255%, 94.898987%)" offset="0.289062"/><stop stop-opacity="1" stop-color="rgb(45.303345%, 33.493042%, 94.898987%)" offset="0.296875"/><stop stop-opacity="1" stop-color="rgb(44.903564%, 33.879089%, 94.898987%)" offset="0.300781"/><stop stop-opacity="1" stop-color="rgb(44.699097%, 34.069824%, 94.898987%)" offset="0.304688"/><stop stop-opacity="1" stop-color="rgb(44.499207%, 34.260559%, 94.699097%)" offset="0.308594"/><stop stop-opacity="1" stop-color="rgb(44.299316%, 34.451294%, 94.499207%)" offset="0.3125"/><stop stop-opacity="1" stop-color="rgb(44.082642%, 34.675598%, 94.499207%)" offset="0.316406"/><stop stop-opacity="1" stop-color="rgb(43.865967%, 34.899902%, 94.499207%)" offset="0.320312"/><stop stop-opacity="1" stop-color="rgb(43.482971%, 35.099792%, 94.491577%)" offset="0.324219"/><stop stop-opacity="1" stop-color="rgb(43.099976%, 35.299683%, 94.485474%)" offset="0.328125"/><stop stop-opacity="1" stop-color="rgb(42.901611%, 35.496521%, 94.291687%)" offset="0.332031"/><stop stop-opacity="1" stop-color="rgb(42.703247%, 35.694885%, 94.099426%)" offset="0.335938"/><stop stop-opacity="1" stop-color="rgb(42.559814%, 35.88562%, 94.099426%)" offset="0.34375"/><stop stop-opacity="1" stop-color="rgb(42.228699%, 36.26709%, 94.099426%)" offset="0.351562"/><stop stop-opacity="1" stop-color="rgb(41.799927%, 36.677551%, 93.899536%)" offset="0.355469"/><stop stop-opacity="1" stop-color="rgb(41.560364%, 36.898804%, 93.699646%)" offset="0.359375"/><stop stop-opacity="1" stop-color="rgb(41.369629%, 37.098694%, 93.699646%)" offset="0.363281"/><stop stop-opacity="1" stop-color="rgb(41.178894%, 37.298584%, 93.699646%)" offset="0.367187"/><stop stop-opacity="1" stop-color="rgb(40.788269%, 37.44812%, 93.499756%)" offset="0.371094"/><stop stop-opacity="1" stop-color="rgb(40.39917%, 37.599182%, 93.299866%)" offset="0.375"/><stop stop-opacity="1" stop-color="rgb(40.206909%, 37.789917%, 93.299866%)" offset="0.382813"/><stop stop-opacity="1" stop-color="rgb(39.825439%, 38.172913%, 93.299866%)" offset="0.390625"/><stop stop-opacity="1" stop-color="rgb(39.393616%, 38.580322%, 93.09845%)" offset="0.394531"/><stop stop-opacity="1" stop-color="rgb(39.154053%, 38.798523%, 92.89856%)" offset="0.398438"/><stop stop-opacity="1" stop-color="rgb(38.963318%, 38.998413%, 92.89856%)" offset="0.402344"/><stop stop-opacity="1" stop-color="rgb(38.772583%, 39.199829%, 92.89856%)" offset="0.40625"/><stop stop-opacity="1" stop-color="rgb(38.581848%, 39.399719%, 92.89856%)" offset="0.410156"/><stop stop-opacity="1" stop-color="rgb(38.391113%, 39.599609%, 92.89856%)" offset="0.414062"/><stop stop-opacity="1" stop-color="rgb(38.194275%, 39.793396%, 92.703247%)" offset="0.417969"/><stop stop-opacity="1" stop-color="rgb(37.998962%, 39.988708%, 92.50946%)" offset="0.421875"/><stop stop-opacity="1" stop-color="rgb(37.660217%, 40.179443%, 92.503357%)" offset="0.425781"/><stop stop-opacity="1" stop-color="rgb(37.321472%, 40.370178%, 92.498779%)" offset="0.429688"/><stop stop-opacity="1" stop-color="rgb(37.133789%, 40.559387%, 92.498779%)" offset="0.4375"/><stop stop-opacity="1" stop-color="rgb(36.723328%, 40.974426%, 92.349243%)" offset="0.441406"/><stop stop-opacity="1" stop-color="rgb(36.499023%, 41.19873%, 92.199707%)" offset="0.445312"/><stop stop-opacity="1" stop-color="rgb(36.291504%, 41.398621%, 92.199707%)" offset="0.449219"/><stop stop-opacity="1" stop-color="rgb(36.08551%, 41.598511%, 92.199707%)" offset="0.453125"/><stop stop-opacity="1" stop-color="rgb(35.891724%, 41.796875%, 92.199707%)" offset="0.457031"/><stop stop-opacity="1" stop-color="rgb(35.699463%, 41.995239%, 92.199707%)" offset="0.460938"/><stop stop-opacity="1" stop-color="rgb(35.499573%, 42.184448%, 92.010498%)" offset="0.464844"/><stop stop-opacity="1" stop-color="rgb(35.299683%, 42.375183%, 91.822815%)" offset="0.46875"/><stop stop-opacity="1" stop-color="rgb(34.919739%, 42.521667%, 91.810608%)" offset="0.472656"/><stop stop-opacity="1" stop-color="rgb(34.541321%, 42.668152%, 91.799927%)" offset="0.476562"/><stop stop-opacity="1" stop-color="rgb(34.320068%, 42.883301%, 91.799927%)" offset="0.480469"/><stop stop-opacity="1" stop-color="rgb(34.098816%, 43.099976%, 91.799927%)" offset="0.484375"/><stop stop-opacity="1" stop-color="rgb(33.898926%, 43.299866%, 91.598511%)" offset="0.488281"/><stop stop-opacity="1" stop-color="rgb(33.699036%, 43.499756%, 91.398621%)" offset="0.492188"/><stop stop-opacity="1" stop-color="rgb(33.49762%, 43.699646%, 91.398621%)" offset="0.496094"/><stop stop-opacity="1" stop-color="rgb(33.297729%, 43.901062%, 91.398621%)" offset="0.5"/><stop stop-opacity="1" stop-color="rgb(33.097839%, 44.099426%, 91.398621%)" offset="0.503906"/><stop stop-opacity="1" stop-color="rgb(32.899475%, 44.299316%, 91.398621%)" offset="0.507812"/><stop stop-opacity="1" stop-color="rgb(32.699585%, 44.499207%, 91.19873%)" offset="0.511719"/><stop stop-opacity="1" stop-color="rgb(32.499695%, 44.699097%, 90.99884%)" offset="0.515625"/><stop stop-opacity="1" stop-color="rgb(32.327271%, 44.921875%, 90.99884%)" offset="0.519531"/><stop stop-opacity="1" stop-color="rgb(32.154846%, 45.144653%, 90.99884%)" offset="0.523438"/><stop stop-opacity="1" stop-color="rgb(31.776428%, 45.335388%, 90.985107%)" offset="0.527344"/><stop stop-opacity="1" stop-color="rgb(31.399536%, 45.526123%, 90.9729%)" offset="0.53125"/><stop stop-opacity="1" stop-color="rgb(31.199646%, 45.715332%, 90.785217%)" offset="0.535156"/><stop stop-opacity="1" stop-color="rgb(30.999756%, 45.906067%, 90.59906%)" offset="0.539062"/><stop stop-opacity="1" stop-color="rgb(30.804443%, 46.102905%, 90.59906%)" offset="0.542969"/><stop stop-opacity="1" stop-color="rgb(30.610657%, 46.299744%, 90.59906%)" offset="0.546875"/><stop stop-opacity="1" stop-color="rgb(30.404663%, 46.499634%, 90.59906%)" offset="0.550781"/><stop stop-opacity="1" stop-color="rgb(30.198669%, 46.699524%, 90.59906%)" offset="0.554688"/><stop stop-opacity="1" stop-color="rgb(29.998779%, 46.899414%, 90.39917%)" offset="0.558594"/><stop stop-opacity="1" stop-color="rgb(29.798889%, 47.099304%, 90.19928%)" offset="0.5625"/><stop stop-opacity="1" stop-color="rgb(29.582214%, 47.311401%, 90.19928%)" offset="0.566406"/><stop stop-opacity="1" stop-color="rgb(29.367065%, 47.523499%, 90.19928%)" offset="0.570312"/><stop stop-opacity="1" stop-color="rgb(28.982544%, 47.668457%, 90.19165%)" offset="0.574219"/><stop stop-opacity="1" stop-color="rgb(28.599548%, 47.813416%, 90.185547%)" offset="0.578125"/><stop stop-opacity="1" stop-color="rgb(28.401184%, 48.005676%, 89.99176%)" offset="0.582031"/><stop stop-opacity="1" stop-color="rgb(28.204346%, 48.199463%, 89.7995%)" offset="0.585938"/><stop stop-opacity="1" stop-color="rgb(28.013611%, 48.399353%, 89.7995%)" offset="0.589844"/><stop stop-opacity="1" stop-color="rgb(27.822876%, 48.599243%, 89.7995%)" offset="0.59375"/><stop stop-opacity="1" stop-color="rgb(27.676392%, 48.799133%, 89.7995%)" offset="0.597656"/><stop stop-opacity="1" stop-color="rgb(27.531433%, 48.999023%, 89.7995%)" offset="0.601562"/><stop stop-opacity="1" stop-color="rgb(27.294922%, 49.21875%, 89.599609%)" offset="0.605469"/><stop stop-opacity="1" stop-color="rgb(27.059937%, 49.438477%, 89.399719%)" offset="0.609375"/><stop stop-opacity="1" stop-color="rgb(26.869202%, 49.627686%, 89.399719%)" offset="0.617188"/><stop stop-opacity="1" stop-color="rgb(26.289368%, 50.009155%, 89.199829%)" offset="0.621094"/><stop stop-opacity="1" stop-color="rgb(25.898743%, 50.19989%, 88.999939%)" offset="0.625"/><stop stop-opacity="1" stop-color="rgb(25.708008%, 50.39978%, 88.999939%)" offset="0.628906"/><stop stop-opacity="1" stop-color="rgb(25.517273%, 50.59967%, 88.999939%)" offset="0.632812"/><stop stop-opacity="1" stop-color="rgb(25.326538%, 50.799561%, 88.999939%)" offset="0.636719"/><stop stop-opacity="1" stop-color="rgb(25.135803%, 50.999451%, 88.999939%)" offset="0.640625"/><stop stop-opacity="1" stop-color="rgb(24.894714%, 51.220703%, 88.798523%)" offset="0.644531"/><stop stop-opacity="1" stop-color="rgb(24.655151%, 51.443481%, 88.598633%)" offset="0.648438"/><stop stop-opacity="1" stop-color="rgb(24.464417%, 51.634216%, 88.598633%)" offset="0.65625"/><stop stop-opacity="1" stop-color="rgb(24.082947%, 52.01416%, 88.598633%)" offset="0.664062"/><stop stop-opacity="1" stop-color="rgb(23.695374%, 52.351379%, 88.404846%)" offset="0.667969"/><stop stop-opacity="1" stop-color="rgb(23.498535%, 52.49939%, 88.21106%)" offset="0.671875"/><stop stop-opacity="1" stop-color="rgb(23.114014%, 52.69928%, 88.204956%)" offset="0.675781"/><stop stop-opacity="1" stop-color="rgb(22.729492%, 52.89917%, 88.198853%)" offset="0.679688"/><stop stop-opacity="1" stop-color="rgb(22.583008%, 53.09906%, 88.198853%)" offset="0.683594"/><stop stop-opacity="1" stop-color="rgb(22.436523%, 53.29895%, 88.198853%)" offset="0.6875"/><stop stop-opacity="1" stop-color="rgb(22.216797%, 53.514099%, 87.998962%)" offset="0.691406"/><stop stop-opacity="1" stop-color="rgb(21.998596%, 53.730774%, 87.799072%)" offset="0.695313"/><stop stop-opacity="1" stop-color="rgb(21.792603%, 53.921509%, 87.799072%)" offset="0.699219"/><stop stop-opacity="1" stop-color="rgb(21.586609%, 54.112244%, 87.799072%)" offset="0.703125"/><stop stop-opacity="1" stop-color="rgb(21.392822%, 54.30603%, 87.799072%)" offset="0.710938"/><stop stop-opacity="1" stop-color="rgb(20.999146%, 54.699707%, 87.657166%)" offset="0.714844"/><stop stop-opacity="1" stop-color="rgb(20.799255%, 54.899597%, 87.516785%)" offset="0.71875"/><stop stop-opacity="1" stop-color="rgb(20.420837%, 55.099487%, 87.507629%)" offset="0.722656"/><stop stop-opacity="1" stop-color="rgb(20.042419%, 55.299377%, 87.5%)" offset="0.726562"/><stop stop-opacity="1" stop-color="rgb(19.821167%, 55.517578%, 87.5%)" offset="0.730469"/><stop stop-opacity="1" stop-color="rgb(19.599915%, 55.737305%, 87.5%)" offset="0.734375"/><stop stop-opacity="1" stop-color="rgb(19.398499%, 55.92804%, 87.298584%)" offset="0.738281"/><stop stop-opacity="1" stop-color="rgb(19.198608%, 56.118774%, 87.098694%)" offset="0.742188"/><stop stop-opacity="1" stop-color="rgb(18.998718%, 56.309509%, 87.098694%)" offset="0.746094"/><stop stop-opacity="1" stop-color="rgb(18.798828%, 56.500244%, 87.098694%)" offset="0.75"/><stop stop-opacity="1" stop-color="rgb(18.598938%, 56.890869%, 87.098694%)" offset="0.753906"/><stop stop-opacity="1" stop-color="rgb(18.399048%, 57.281494%, 87.098694%)" offset="0.757812"/><stop stop-opacity="1" stop-color="rgb(18.199158%, 57.426453%, 86.898804%)" offset="0.761719"/><stop stop-opacity="1" stop-color="rgb(17.999268%, 57.571411%, 86.698914%)" offset="0.765625"/><stop stop-opacity="1" stop-color="rgb(17.782593%, 57.785034%, 86.698914%)" offset="0.769531"/><stop stop-opacity="1" stop-color="rgb(17.565918%, 57.998657%, 86.698914%)" offset="0.773438"/><stop stop-opacity="1" stop-color="rgb(17.23175%, 58.198547%, 86.685181%)" offset="0.777344"/><stop stop-opacity="1" stop-color="rgb(16.899109%, 58.399963%, 86.672974%)" offset="0.78125"/><stop stop-opacity="1" stop-color="rgb(16.699219%, 58.599854%, 86.485291%)" offset="0.785156"/><stop stop-opacity="1" stop-color="rgb(16.499329%, 58.799744%, 86.299133%)" offset="0.789062"/><stop stop-opacity="1" stop-color="rgb(16.305542%, 58.99353%, 86.299133%)" offset="0.796875"/><stop stop-opacity="1" stop-color="rgb(15.905762%, 59.378052%, 86.299133%)" offset="0.800781"/><stop stop-opacity="1" stop-color="rgb(15.699768%, 59.568787%, 86.299133%)" offset="0.804687"/><stop stop-opacity="1" stop-color="rgb(15.499878%, 59.759521%, 86.099243%)" offset="0.808594"/><stop stop-opacity="1" stop-color="rgb(15.299988%, 59.950256%, 85.899353%)" offset="0.8125"/><stop stop-opacity="1" stop-color="rgb(15.083313%, 60.174561%, 85.899353%)" offset="0.816406"/><stop stop-opacity="1" stop-color="rgb(14.868164%, 60.398865%, 85.899353%)" offset="0.820312"/><stop stop-opacity="1" stop-color="rgb(14.483643%, 60.598755%, 85.891724%)" offset="0.824219"/><stop stop-opacity="1" stop-color="rgb(14.099121%, 60.798645%, 85.88562%)" offset="0.828125"/><stop stop-opacity="1" stop-color="rgb(13.902283%, 60.995483%, 85.691833%)" offset="0.832031"/><stop stop-opacity="1" stop-color="rgb(13.705444%, 61.193848%, 85.499573%)" offset="0.835938"/><stop stop-opacity="1" stop-color="rgb(13.514709%, 61.384583%, 85.499573%)" offset="0.84375"/><stop stop-opacity="1" stop-color="rgb(13.13324%, 61.764526%, 85.499573%)" offset="0.851562"/><stop stop-opacity="1" stop-color="rgb(12.705994%, 62.176514%, 85.299683%)" offset="0.855469"/><stop stop-opacity="1" stop-color="rgb(12.471008%, 62.399292%, 85.099792%)" offset="0.859375"/><stop stop-opacity="1" stop-color="rgb(12.324524%, 62.548828%, 85.099792%)" offset="0.867188"/><stop stop-opacity="1" stop-color="rgb(11.78894%, 62.89978%, 84.898376%)" offset="0.871094"/><stop stop-opacity="1" stop-color="rgb(11.399841%, 63.09967%, 84.698486%)" offset="0.875"/><stop stop-opacity="1" stop-color="rgb(11.209106%, 63.290405%, 84.698486%)" offset="0.882812"/><stop stop-opacity="1" stop-color="rgb(10.827637%, 63.671875%, 84.698486%)" offset="0.890625"/><stop stop-opacity="1" stop-color="rgb(10.395813%, 64.080811%, 84.498596%)" offset="0.894531"/><stop stop-opacity="1" stop-color="rgb(10.154724%, 64.299011%, 84.298706%)" offset="0.898438"/><stop stop-opacity="1" stop-color="rgb(9.963989%, 64.498901%, 84.298706%)" offset="0.902344"/><stop stop-opacity="1" stop-color="rgb(9.773254%, 64.698792%, 84.298706%)" offset="0.90625"/><stop stop-opacity="1" stop-color="rgb(9.58252%, 64.898682%, 84.298706%)" offset="0.910156"/><stop stop-opacity="1" stop-color="rgb(9.393311%, 65.098572%, 84.298706%)" offset="0.914062"/><stop stop-opacity="1" stop-color="rgb(9.196472%, 65.292358%, 84.104919%)" offset="0.917969"/><stop stop-opacity="1" stop-color="rgb(8.999634%, 65.487671%, 83.911133%)" offset="0.921875"/><stop stop-opacity="1" stop-color="rgb(8.615112%, 65.67688%, 83.905029%)" offset="0.925781"/><stop stop-opacity="1" stop-color="rgb(8.230591%, 65.867615%, 83.898926%)" offset="0.929688"/><stop stop-opacity="1" stop-color="rgb(8.039856%, 66.05835%, 83.898926%)" offset="0.9375"/><stop stop-opacity="1" stop-color="rgb(7.673645%, 66.473389%, 83.699036%)" offset="0.941406"/><stop stop-opacity="1" stop-color="rgb(7.499695%, 66.699219%, 83.499146%)" offset="0.945312"/><stop stop-opacity="1" stop-color="rgb(7.292175%, 66.899109%, 83.499146%)" offset="0.949219"/><stop stop-opacity="1" stop-color="rgb(7.086182%, 67.098999%, 83.499146%)" offset="0.953125"/><stop stop-opacity="1" stop-color="rgb(6.892395%, 67.295837%, 83.499146%)" offset="0.957031"/><stop stop-opacity="1" stop-color="rgb(6.698608%, 67.492676%, 83.499146%)" offset="0.960938"/><stop stop-opacity="1" stop-color="rgb(6.498718%, 67.636108%, 83.311462%)" offset="0.964844"/><stop stop-opacity="1" stop-color="rgb(6.298828%, 67.781067%, 83.123779%)" offset="0.96875"/><stop stop-opacity="1" stop-color="rgb(5.92041%, 67.967224%, 83.111572%)" offset="0.972656"/><stop stop-opacity="1" stop-color="rgb(5.543518%, 68.154907%, 83.099365%)" offset="0.976562"/><stop stop-opacity="1" stop-color="rgb(5.32074%, 68.37616%, 83.099365%)" offset="0.980469"/><stop stop-opacity="1" stop-color="rgb(5.099487%, 68.598938%, 83.099365%)" offset="0.984375"/><stop stop-opacity="1" stop-color="rgb(4.899597%, 68.798828%, 82.899475%)" offset="0.988281"/><stop stop-opacity="1" stop-color="rgb(4.699707%, 68.998718%, 82.699585%)" offset="0.992188"/><stop stop-opacity="1" stop-color="rgb(4.499817%, 69.198608%, 82.699585%)" offset="0.996094"/><stop stop-opacity="1" stop-color="rgb(4.299927%, 69.398499%, 82.699585%)" offset="1"/></linearGradient></defs><g clip-path="url(#id1)"><g clip-path="url(#id2)"><g clip-path="url(#id3)"><path fill="url(#id4)" d="M 619.09375 658.5 L 1277.59375 658.5 L 1277.59375 0 L 619.09375 0 Z M 619.09375 658.5 " fill-rule="nonzero"/></g></g></g><g clip-path="url(#id5)"><g clip-path="url(#id6)"><g clip-path="url(#id7)"><path fill="url(#id8)" d="M 429.910156 810 L 732.910156 810 L 732.910156 507.007812 L 429.910156 507.007812 Z M 429.910156 810 " fill-rule="nonzero"/></g></g></g></svg>